<svg width="24" height="24" viewBox="0 0 24 24" fill="none" xmlns="http://www.w3.org/2000/svg">
  <path d="M12 15.2C13.7673 15.2 15.2 13.7673 15.2 12C15.2 10.2327 13.7673 8.8 12 8.8C10.2327 8.8 8.8 10.2327 8.8 12C8.8 13.7673 10.2327 15.2 12 15.2Z" fill="currentColor"/>
  <path fill-rule="evenodd" clip-rule="evenodd" d="M9 3C8.44772 3 8 3.44772 8 4V4.5H5C3.89543 4.5 3 5.39543 3 6.5V18.5C3 19.6046 3.89543 20.5 5 20.5H19C20.1046 20.5 21 19.6046 21 18.5V6.5C21 5.39543 20.1046 4.5 19 4.5H16V4C16 3.44772 15.5523 3 15 3H9ZM12 17C14.7614 17 17 14.7614 17 12C17 9.23858 14.7614 7 12 7C9.23858 7 7 9.23858 7 12C7 14.7614 9.23858 17 12 17Z" fill="currentColor"/>
</svg> 