<svg width="254" height="32" viewBox="0 0 254 32" fill="none" xmlns="http://www.w3.org/2000/svg">
<path d="M0.5 4C0.5 2.067 2.067 0.5 4 0.5H42C43.933 0.5 45.5 2.067 45.5 4V28C45.5 29.933 43.933 31.5 42 31.5H4C2.067 31.5 0.5 29.933 0.5 28V4Z" fill="white"/>
<path d="M0.5 4C0.5 2.067 2.067 0.5 4 0.5H42C43.933 0.5 45.5 2.067 45.5 4V28C45.5 29.933 43.933 31.5 42 31.5H4C2.067 31.5 0.5 29.933 0.5 28V4Z" stroke="#EAECF0"/>
<path fill-rule="evenodd" clip-rule="evenodd" d="M14.3337 21.1443H11.5874L9.52796 13.0565C9.43022 12.6844 9.22267 12.3555 8.91737 12.2005C8.15547 11.811 7.31591 11.5009 6.40002 11.3446V11.0332H10.8241C11.4347 11.0332 11.8927 11.5009 11.969 12.0442L13.0375 17.8782L15.7825 11.0332H18.4525L14.3337 21.1443ZM19.979 21.1443H17.3853L19.521 11.0332H22.1147L19.979 21.1443ZM25.4703 13.8343C25.5466 13.2897 26.0046 12.9783 26.5388 12.9783C27.3784 12.9001 28.2929 13.0565 29.0562 13.4447L29.5141 11.2677C28.7509 10.9564 27.9113 10.8 27.1494 10.8C24.6321 10.8 22.8003 12.2005 22.8003 14.1443C22.8003 15.623 24.0978 16.3995 25.0137 16.8672C26.0046 17.3336 26.3862 17.645 26.3099 18.1114C26.3099 18.811 25.5466 19.1224 24.7847 19.1224C23.8688 19.1224 22.9529 18.8892 22.1147 18.4996L21.6568 20.6779C22.5727 21.0661 23.5635 21.2225 24.4794 21.2225C27.3021 21.2993 29.0562 19.9001 29.0562 17.8C29.0562 15.1553 25.4703 15.0003 25.4703 13.8343ZM38.1334 21.1443L36.074 11.0332H33.8619C33.404 11.0332 32.946 11.3446 32.7934 11.811L28.9798 21.1443H31.6498L32.1828 19.6669H35.4634L35.7687 21.1443H38.1334ZM34.2435 13.7561L35.0054 17.5668H32.8697L34.2435 13.7561Z" fill="#172B85"/>
<path d="M52.5 4C52.5 2.067 54.067 0.5 56 0.5H94C95.933 0.5 97.5 2.067 97.5 4V28C97.5 29.933 95.933 31.5 94 31.5H56C54.067 31.5 52.5 29.933 52.5 28V4Z" fill="white"/>
<path d="M52.5 4C52.5 2.067 54.067 0.5 56 0.5H94C95.933 0.5 97.5 2.067 97.5 4V28C97.5 29.933 95.933 31.5 94 31.5H56C54.067 31.5 52.5 29.933 52.5 28V4Z" stroke="#EAECF0"/>
<path fill-rule="evenodd" clip-rule="evenodd" d="M74.9053 22.4392C73.3266 23.7699 71.2787 24.5733 69.0409 24.5733C64.0478 24.5733 60 20.5737 60 15.6399C60 10.7062 64.0478 6.7066 69.0409 6.7066C71.2787 6.7066 73.3266 7.50994 74.9053 8.84066C76.484 7.50994 78.5319 6.7066 80.7697 6.7066C85.7628 6.7066 89.8106 10.7062 89.8106 15.6399C89.8106 20.5737 85.7628 24.5733 80.7697 24.5733C78.5319 24.5733 76.484 23.7699 74.9053 22.4392Z" fill="#ED0006"/>
<path fill-rule="evenodd" clip-rule="evenodd" d="M74.9053 22.4392C76.8492 20.8007 78.0818 18.3625 78.0818 15.6399C78.0818 12.9173 76.8492 10.4792 74.9053 8.84066C76.484 7.50993 78.5319 6.7066 80.7697 6.7066C85.7628 6.7066 89.8106 10.7062 89.8106 15.6399C89.8106 20.5737 85.7628 24.5733 80.7697 24.5733C78.5319 24.5733 76.484 23.7699 74.9053 22.4392Z" fill="#F9A000"/>
<path fill-rule="evenodd" clip-rule="evenodd" d="M74.9053 22.4392C76.8492 20.8007 78.0818 18.3625 78.0818 15.6399C78.0818 12.9174 76.8492 10.4792 74.9053 8.8407C72.9614 10.4792 71.7288 12.9174 71.7288 15.6399C71.7288 18.3625 72.9614 20.8007 74.9053 22.4392Z" fill="#FF5E00"/>
<path d="M104 4C104 1.79086 105.791 0 108 0H146C148.209 0 150 1.79086 150 4V28C150 30.2091 148.209 32 146 32H108C105.791 32 104 30.2091 104 28V4Z" fill="#1F72CD"/>
<path fill-rule="evenodd" clip-rule="evenodd" d="M112.127 11.3333L107.886 20.9956H112.963L113.593 19.4551H115.032L115.661 20.9956H121.25V19.8198L121.748 20.9956H124.639L125.137 19.795V20.9956H136.761L138.175 19.4951L139.498 20.9956L145.468 21.0081L141.213 16.1915L145.468 11.3333H139.591L138.215 12.8062L136.933 11.3333H124.288L123.202 13.8272L122.091 11.3333H117.024V12.4691L116.46 11.3333H112.127ZM113.11 12.7054H115.585L118.398 19.2575V12.7054H121.11L123.283 17.4032L125.285 12.7054H127.983V19.6387H126.341L126.328 14.2058L123.935 19.6387H122.466L120.06 14.2058V19.6387H116.683L116.042 18.0844H112.584L111.945 19.6374H110.135L113.11 12.7054ZM136.16 12.7054H129.485V19.6346H136.056L138.175 17.3382L140.216 19.6346H142.35L139.248 16.1901L142.35 12.7054H140.309L138.201 14.9755L136.16 12.7054ZM114.314 13.8785L113.174 16.6474H115.452L114.314 13.8785ZM131.133 15.4066V14.1409V14.1397H135.298L137.115 16.1639L135.218 18.1991H131.133V16.8173H134.775V15.4066H131.133Z" fill="white"/>
<path d="M156.5 4C156.5 2.067 158.067 0.5 160 0.5H198C199.933 0.5 201.5 2.067 201.5 4V28C201.5 29.933 199.933 31.5 198 31.5H160C158.067 31.5 156.5 29.933 156.5 28V4Z" fill="white"/>
<path d="M156.5 4C156.5 2.067 158.067 0.5 160 0.5H198C199.933 0.5 201.5 2.067 201.5 4V28C201.5 29.933 199.933 31.5 198 31.5H160C158.067 31.5 156.5 29.933 156.5 28V4Z" stroke="#EAECF0"/>
<path d="M181 31L200 25.25V28C200 29.6569 198.657 31 197 31H181Z" fill="#FD6020"/>
<path fill-rule="evenodd" clip-rule="evenodd" d="M195.192 12.1478C196.585 12.1478 197.352 12.7925 197.352 14.0103C197.422 14.9416 196.794 15.7296 195.958 15.8729L197.84 18.5234H196.376L194.773 15.9445H194.634V18.5234H193.449V12.1478H195.192ZM194.634 15.0849H194.982C195.749 15.0849 196.097 14.7267 196.097 14.082C196.097 13.5089 195.749 13.1507 194.982 13.1507H194.634V15.0849ZM189.338 18.5234H192.683V17.4488H190.523V15.7296H192.613V14.655H190.523V13.2223H192.683V12.1478H189.338V18.5234ZM185.854 16.4459L184.251 12.1478H182.996L185.575 18.6667H186.202L188.78 12.1478H187.526L185.854 16.4459ZM171.707 15.3714C171.707 17.1623 173.101 18.6667 174.843 18.6667C175.401 18.6667 175.888 18.5234 176.376 18.3085V16.8758C176.028 17.3056 175.54 17.5921 174.983 17.5921C173.868 17.5921 172.962 16.7325 172.962 15.5863V15.4431C172.892 14.2969 173.798 13.294 174.913 13.2223C175.47 13.2223 176.028 13.5089 176.376 13.9387V12.506C175.958 12.2194 175.401 12.1478 174.913 12.1478C173.101 12.0045 171.707 13.5089 171.707 15.3714ZM169.547 14.5834C168.85 14.2969 168.641 14.1536 168.641 13.7954C168.711 13.3656 169.059 13.0074 169.477 13.0791C169.826 13.0791 170.174 13.294 170.453 13.5805L171.08 12.7209C170.592 12.2911 169.965 12.0045 169.338 12.0045C168.362 11.9329 167.526 12.7209 167.456 13.7238V13.7954C167.456 14.6551 167.805 15.1565 168.92 15.5147C169.199 15.5863 169.477 15.7296 169.756 15.8729C169.965 16.0161 170.105 16.231 170.105 16.5176C170.105 17.019 169.686 17.4489 169.268 17.4489H169.199C168.641 17.4489 168.153 17.0907 167.944 16.5892L167.178 17.3772C167.596 18.1652 168.432 18.595 169.268 18.595C170.383 18.6667 171.289 17.807 171.359 16.6609V16.446C171.289 15.5863 170.941 15.1565 169.547 14.5834ZM165.505 18.5234H166.69V12.1478H165.505V18.5234ZM160 12.1478H161.742H162.091C163.763 12.2194 165.087 13.6522 165.017 15.3714C165.017 16.3027 164.599 17.1623 163.902 17.807C163.275 18.3085 162.509 18.595 161.742 18.5234H160V12.1478ZM161.533 17.4488C162.091 17.5205 162.718 17.3056 163.136 16.9474C163.554 16.5176 163.763 15.9445 163.763 15.2998C163.763 14.7267 163.554 14.1536 163.136 13.7238C162.718 13.3656 162.091 13.1507 161.533 13.2223H161.185V17.4488H161.533Z" fill="black"/>
<path fill-rule="evenodd" clip-rule="evenodd" d="M179.93 12C178.188 12 176.725 13.4327 176.725 15.2953C176.725 17.0862 178.118 18.5905 179.93 18.6621C181.742 18.7338 183.136 17.2294 183.206 15.3669C183.136 13.5044 181.742 12 179.93 12V12Z" fill="#FD6020"/>
<path d="M208.5 4C208.5 2.067 210.067 0.5 212 0.5H250C251.933 0.5 253.5 2.067 253.5 4V28C253.5 29.933 251.933 31.5 250 31.5H212C210.067 31.5 208.5 29.933 208.5 28V4Z" fill="white"/>
<path d="M208.5 4C208.5 2.067 210.067 0.5 212 0.5H250C251.933 0.5 253.5 2.067 253.5 4V28C253.5 29.933 251.933 31.5 250 31.5H212C210.067 31.5 208.5 29.933 208.5 28V4Z" stroke="#EAECF0"/>
<path d="M237.309 15.9391C238.018 15.9545 238.73 15.9078 239.435 15.9633C240.15 16.0966 240.322 17.1782 239.687 17.5325C239.254 17.7659 238.74 17.6194 238.27 17.6606H237.309V15.9391ZM239.845 13.9905C240.002 14.546 239.467 15.0448 238.932 14.9683H237.309C237.321 14.4444 237.287 13.8758 237.326 13.3796C237.976 13.3979 238.632 13.3422 239.278 13.4087C239.556 13.4784 239.788 13.7067 239.845 13.9905ZM243.75 5.75272C243.78 6.81358 243.755 7.9305 243.763 9.01287C243.761 13.4134 243.767 17.8138 243.76 22.2146C243.731 23.8638 242.27 25.2968 240.632 25.3297C238.993 25.3364 237.353 25.3308 235.713 25.3326V18.6799C237.5 18.6707 239.287 18.6986 241.073 18.666C241.901 18.614 242.809 18.0674 242.847 17.1558C242.945 16.2402 242.081 15.6069 241.262 15.5069C240.947 15.4987 240.956 15.4151 241.262 15.3786C242.044 15.2097 242.657 14.4007 242.427 13.5905C242.231 12.7383 241.29 12.4085 240.506 12.4101C238.909 12.3993 237.311 12.4086 235.714 12.4055C235.724 11.1635 235.692 9.92018 235.731 8.67912C235.857 7.05968 237.356 5.72417 238.971 5.75315C240.564 5.75291 242.157 5.75291 243.75 5.75285V5.75272Z" fill="url(#paint0_linear_1_4206)"/>
<path d="M217.662 8.84678C217.703 7.20019 219.171 5.77891 220.806 5.75484C222.44 5.74981 224.073 5.75411 225.706 5.75266C225.702 11.2618 225.715 16.7716 225.7 22.2804C225.637 23.907 224.185 25.3012 222.567 25.33C220.931 25.3359 219.294 25.3308 217.658 25.3325V18.4555C219.247 18.831 220.914 18.9909 222.536 18.7418C223.505 18.5858 224.566 18.1098 224.894 17.1042C225.135 16.244 224.999 15.3386 225.035 14.4558V12.4054H222.229C222.216 13.7615 222.255 15.1199 222.209 16.4743C222.133 17.3068 221.309 17.8358 220.523 17.8075C219.55 17.8178 217.62 17.1018 217.62 17.1018C217.615 14.5611 217.648 11.3793 217.662 8.84702V8.84678Z" fill="url(#paint1_linear_1_4206)"/>
<path d="M226.753 13.2325C226.605 13.2639 226.723 12.7294 226.686 12.5266C226.696 11.2446 226.665 9.96112 226.703 8.67999C226.829 7.0537 228.339 5.71486 229.96 5.75293H234.735C234.73 11.2621 234.744 16.7718 234.728 22.2807C234.665 23.9073 233.213 25.3014 231.595 25.3302C229.959 25.3364 228.322 25.3312 226.686 25.3328V17.7981C227.803 18.7152 229.322 18.858 230.715 18.8604C231.765 18.8601 232.808 18.6982 233.828 18.4561V17.0758C232.679 17.6484 231.328 18.0121 230.055 17.6831C229.166 17.462 228.521 16.6034 228.536 15.6866C228.433 14.7331 228.992 13.7265 229.929 13.4431C231.092 13.0789 232.36 13.3574 233.45 13.8309C233.684 13.9532 233.921 14.1049 233.828 13.7144V12.6295C232.004 12.1956 230.063 12.0359 228.231 12.5079C227.701 12.6575 227.184 12.8844 226.753 13.2327V13.2325Z" fill="url(#paint2_linear_1_4206)"/>
<defs>
<linearGradient id="paint0_linear_1_4206" x1="235.658" y1="15.124" x2="243.712" y2="15.124" gradientUnits="userSpaceOnUse">
<stop stop-color="#58B03A"/>
<stop offset="1" stop-color="#55B330"/>
</linearGradient>
<linearGradient id="paint1_linear_1_4206" x1="217.486" y1="15.7301" x2="225.575" y2="15.7301" gradientUnits="userSpaceOnUse">
<stop stop-color="#0F6EB6"/>
<stop offset="1" stop-color="#006DBA"/>
</linearGradient>
<linearGradient id="paint2_linear_1_4206" x1="226.674" y1="15.3139" x2="234.733" y2="15.3139" gradientUnits="userSpaceOnUse">
<stop stop-color="#DE0D3D"/>
<stop offset="1" stop-color="#E30138"/>
</linearGradient>
</defs>
</svg>
