<svg width="16" height="16" viewBox="0 0 16 16" fill="none" xmlns="http://www.w3.org/2000/svg">
<path d="M14 9.5V11.6C14 12.4401 14 12.8601 13.8365 13.181C13.6927 13.4632 13.4632 13.6927 13.181 13.8365C12.8601 14 12.4401 14 11.6 14H9.5M6.5 2H4.4C3.55992 2 3.13988 2 2.81901 2.16349C2.53677 2.3073 2.3073 2.53677 2.16349 2.81901C2 3.13988 2 3.55992 2 4.4V6.5M10.25 5.75L14.75 1.25M14.75 1.25H10.25M14.75 1.25V5.75M5.75 10.25L1.25 14.75M1.25 14.75H5.75M1.25 14.75L1.25 10.25" stroke="#081D3F" stroke-width="1.6" stroke-linecap="round" stroke-linejoin="round"/>
</svg>
