<svg width="16" height="12" viewBox="0 0 16 12" fill="none" xmlns="http://www.w3.org/2000/svg">
<path fill-rule="evenodd" clip-rule="evenodd" d="M10.7723 3.48853C10.7723 5.05498 9.5235 6.31103 7.9661 6.31103C6.4087 6.31103 5.15991 5.05498 5.15991 3.48853C5.15991 1.92147 6.4087 0.666626 7.9661 0.666626C9.5235 0.666626 10.7723 1.92147 10.7723 3.48853ZM7.9661 11.3333C5.67865 11.3333 3.72547 10.9706 3.72547 9.52007C3.72547 8.06889 5.66611 7.69304 7.9661 7.69304C10.2536 7.69304 12.2067 8.05568 12.2067 9.50686C12.2067 10.9574 10.2661 11.3333 7.9661 11.3333ZM11.9715 3.53944C11.9715 4.33798 11.7333 5.08188 11.3154 5.7003C11.2725 5.76394 11.3107 5.8498 11.3865 5.86301C11.4909 5.88102 11.599 5.89123 11.7088 5.89423C12.8042 5.92305 13.7874 5.21397 14.059 4.14645C14.4613 2.56078 13.28 1.13722 11.7757 1.13722C11.6121 1.13722 11.4557 1.15463 11.3035 1.18586C11.2826 1.19066 11.2605 1.20027 11.2486 1.21888C11.2343 1.24169 11.245 1.27231 11.2593 1.29213C11.7112 1.92916 11.9715 2.70608 11.9715 3.53944ZM13.7856 7.00834C14.5216 7.15304 15.0057 7.44843 15.2063 7.87772C15.3758 8.23016 15.3758 8.63904 15.2063 8.99087C14.8994 9.65672 13.9103 9.87047 13.5259 9.9257C13.4465 9.93771 13.3826 9.86867 13.391 9.78881C13.5874 7.94377 12.0252 7.06898 11.6211 6.86784C11.6038 6.85884 11.6002 6.84503 11.602 6.83662C11.6032 6.83062 11.6103 6.82101 11.6235 6.81921C12.498 6.803 13.4381 6.92308 13.7856 7.00834ZM4.29149 5.89417C4.40132 5.89117 4.50877 5.88156 4.61383 5.86295C4.68964 5.84974 4.72785 5.76388 4.68487 5.70024C4.26701 5.08182 4.02884 4.33792 4.02884 3.53938C4.02884 2.70602 4.2891 1.9291 4.74098 1.29207C4.75531 1.27225 4.76545 1.24163 4.75172 1.21882C4.73979 1.20081 4.7171 1.1906 4.69681 1.1858C4.54399 1.15457 4.38759 1.13716 4.22403 1.13716C2.71976 1.13716 1.53842 2.56072 1.94135 4.14639C2.21296 5.21391 3.19611 5.92299 4.29149 5.89417ZM4.39804 6.83626C4.39983 6.84527 4.39625 6.85848 4.37954 6.86808C3.97481 7.06922 2.41263 7.94401 2.60903 9.78845C2.61738 9.86891 2.55411 9.93735 2.47472 9.92594C2.09029 9.87071 1.10117 9.65696 0.794343 8.99111C0.624216 8.63868 0.624216 8.2304 0.794343 7.87796C0.994913 7.44868 1.47843 7.15328 2.21445 7.00798C2.56246 6.92332 3.50204 6.80324 4.37715 6.81945C4.39028 6.82125 4.39685 6.83086 4.39804 6.83626Z" fill="#081D3F"/>
</svg>
