<svg width="14" height="14" viewBox="0 0 14 14" fill="none" xmlns="http://www.w3.org/2000/svg">
<path d="M3.1027 8.46037L2.61538 10.2796L0.834231 10.3173C0.30193 9.32998 0 8.20039 0 7C0 5.83923 0.282297 4.7446 0.782688 3.78076H0.78307L2.36879 4.07148L3.06343 5.64768C2.91804 6.07154 2.8388 6.52654 2.8388 7C2.83886 7.51384 2.93193 8.00616 3.1027 8.46037Z" fill="#FBBB00"/>
<path d="M13.8781 5.69231C13.9585 6.11575 14.0004 6.55306 14.0004 6.99999C14.0004 7.50115 13.9477 7.99 13.8473 8.46154C13.5066 10.0662 12.6162 11.4673 11.3827 12.4588L11.3824 12.4585L9.38505 12.3566L9.10238 10.5919C9.92083 10.1119 10.5605 9.36077 10.8974 8.46154H7.1543V5.69231H13.8781Z" fill="#518EF8"/>
<path d="M11.3817 12.4585L11.3821 12.4589C10.1825 13.4231 8.65859 14 6.99975 14C4.33398 14 2.0163 12.51 0.833984 10.3173L3.10245 8.4604C3.69359 10.0381 5.21552 11.1612 6.99975 11.1612C7.76666 11.1612 8.48515 10.9539 9.10167 10.5919L11.3817 12.4585Z" fill="#28B446"/>
<path d="M11.4676 1.61153L9.19992 3.46806C8.56185 3.06923 7.8076 2.83883 6.99954 2.83883C5.17492 2.83883 3.62453 4.01343 3.063 5.64769L0.782609 3.78077H0.782227C1.94723 1.53461 4.29415 0 6.99954 0C8.698 0 10.2553 0.605008 11.4676 1.61153Z" fill="#F14336"/>
</svg>
