<svg width="33" height="14" viewBox="0 0 33 14" fill="none" xmlns="http://www.w3.org/2000/svg">
<path fill-rule="evenodd" clip-rule="evenodd" d="M15.4104 10.704V6.79112H17.4299C18.2575 6.79112 18.956 6.51383 19.5254 5.96695L19.662 5.82831C20.7021 4.69604 20.6338 2.93217 19.5254 1.88463C18.9711 1.33005 18.2119 1.02965 17.4299 1.04506H14.1881V10.704H15.4104ZM15.4106 5.60486V2.23117H17.4608C17.9012 2.23117 18.3188 2.40062 18.6301 2.70872C19.2908 3.35573 19.306 4.43408 18.6681 5.1042C18.3568 5.4354 17.9164 5.62026 17.4608 5.60486H15.4106ZM25.3637 4.61128C24.8399 4.12602 24.1262 3.87954 23.2228 3.87954C22.0612 3.87954 21.1881 4.31088 20.6111 5.16586L21.6892 5.85138C22.0839 5.26599 22.623 4.9733 23.3063 4.9733C23.739 4.9733 24.1566 5.13505 24.4831 5.42774C24.8019 5.70503 24.9841 6.10556 24.9841 6.5292V6.81419C24.5134 6.55231 23.9212 6.41366 23.1924 6.41366C22.3421 6.41366 21.6588 6.61393 21.1501 7.02216C20.6414 7.43039 20.3833 7.96957 20.3833 8.65509C20.3681 9.27899 20.6339 9.87209 21.1046 10.2726C21.5829 10.704 22.1902 10.9196 22.9039 10.9196C23.7466 10.9196 24.4147 10.5422 24.9234 9.78736H24.9765V10.704H26.1457V6.62933C26.1457 5.77436 25.8876 5.09654 25.3637 4.61128ZM22.0462 9.48698C21.7956 9.30212 21.6437 9.00173 21.6437 8.67822C21.6437 8.3162 21.8108 8.01581 22.1373 7.77703C22.4714 7.53825 22.889 7.41501 23.3826 7.41501C24.066 7.40731 24.5975 7.56136 24.9772 7.86946C24.9772 8.39323 24.7722 8.84768 24.3697 9.2328C24.0053 9.60252 23.5117 9.81049 22.9954 9.81049C22.6537 9.81819 22.3195 9.70265 22.0462 9.48698ZM28.7726 13.6078L32.8572 4.09521H31.5286L29.6381 8.83994H29.6153L27.6794 4.09521H26.3507L29.0308 10.2803L27.5123 13.6078H28.7726Z" fill="#3C4043"/>
<path d="M11.1905 5.94387C11.1905 5.56645 11.1601 5.18903 11.0994 4.81931H5.94434V6.9529H8.89767C8.77619 7.63842 8.3814 8.25462 7.8044 8.63974V10.0262H9.56577C10.5983 9.06338 11.1905 7.63842 11.1905 5.94387Z" fill="#4285F4"/>
<path d="M5.9446 11.3665C7.41747 11.3665 8.66257 10.8735 9.56603 10.0262L7.80466 8.63978C7.31118 8.97869 6.68103 9.17125 5.9446 9.17125C4.51728 9.17125 3.31013 8.19303 2.87738 6.88361H1.06287V8.31627C1.9891 10.188 3.87954 11.3665 5.9446 11.3665Z" fill="#34A853"/>
<path d="M2.87759 6.88361C2.64979 6.19809 2.64979 5.45095 2.87759 4.75773V3.33276H1.06278C0.280668 4.89637 0.280668 6.74497 1.06278 8.30857L2.87759 6.88361Z" fill="#FBBC04"/>
<path d="M5.9446 2.47005C6.72658 2.45465 7.4782 2.75505 8.04002 3.30192L9.60399 1.71521C8.60943 0.775503 7.30358 0.259436 5.9446 0.274841C3.87954 0.274841 1.9891 1.46103 1.06287 3.33273L2.87738 4.7654C3.31013 3.44827 4.51728 2.47005 5.9446 2.47005Z" fill="#EA4335"/>
</svg>
