<svg width="15" height="14" viewBox="0 0 15 14" fill="none" xmlns="http://www.w3.org/2000/svg">
<path d="M12.2512 11.7543H10.2525V8.6215C10.2525 7.8745 10.2375 6.913 9.21 6.913C8.16825 6.913 8.00925 7.726 8.00925 8.56675V11.7543H6.00975V5.3125H7.92975V6.19H7.956C8.2245 5.6845 8.877 5.14975 9.852 5.14975C11.877 5.14975 12.252 6.48325 12.252 8.218V11.7543H12.2512ZM3.75225 4.43125C3.59967 4.43145 3.44854 4.40153 3.30755 4.3432C3.16655 4.28488 3.03845 4.1993 2.93059 4.09138C2.82273 3.98345 2.73724 3.85529 2.67901 3.71426C2.62078 3.57322 2.59095 3.42208 2.59125 3.2695C2.5914 3.03988 2.65963 2.81545 2.78733 2.62461C2.91503 2.43377 3.09645 2.28508 3.30865 2.19734C3.52085 2.1096 3.7543 2.08676 3.97949 2.13171C4.20467 2.17665 4.41147 2.28736 4.57373 2.44983C4.73599 2.6123 4.84644 2.81925 4.89109 3.04449C4.93574 3.26973 4.9126 3.50315 4.82459 3.71524C4.73658 3.92733 4.58765 4.10855 4.39664 4.236C4.20564 4.36345 3.98112 4.4314 3.7515 4.43125H3.75225ZM4.75425 11.7543H2.7495V5.3125H4.755V11.7543H4.75425ZM13.2525 0.25H1.74675C1.19475 0.25 0.75 0.685 0.75 1.22275V12.7772C0.75 13.315 1.1955 13.75 1.746 13.75H13.2495C13.8 13.75 14.25 13.315 14.25 12.7772V1.22275C14.25 0.685 13.8 0.25 13.2495 0.25H13.2518H13.2525Z" fill="#0077B5"/>
</svg>
