<svg width="16" height="14" viewBox="0 0 16 14" fill="none" xmlns="http://www.w3.org/2000/svg">
<path d="M14.5935 7.45553C14.7766 7.29859 14.8682 7.22013 14.9017 7.12675C14.9311 7.0448 14.9311 6.95515 14.9017 6.8732C14.8682 6.77982 14.7766 6.70136 14.5935 6.54442L8.24047 1.09895C7.9253 0.828806 7.76772 0.693733 7.6343 0.690423C7.51835 0.687547 7.40759 0.738488 7.33432 0.828396C7.25 0.931849 7.25 1.1394 7.25 1.55451V4.77595C5.64899 5.05604 4.1837 5.86729 3.09478 7.08537C1.90762 8.41336 1.25093 10.1319 1.25 11.9132V12.3722C2.03701 11.4241 3.01963 10.6574 4.13057 10.1244C5.11002 9.65455 6.16881 9.37621 7.25 9.30287V12.4454C7.25 12.8605 7.25 13.0681 7.33432 13.1716C7.40759 13.2615 7.51835 13.3124 7.6343 13.3095C7.76772 13.3062 7.9253 13.1711 8.24047 12.901L14.5935 7.45553Z" stroke="#081D3F" stroke-width="1.4" stroke-linecap="round" stroke-linejoin="round"/>
</svg>
