<svg width="12" height="16" viewBox="0 0 12 16" fill="none" xmlns="http://www.w3.org/2000/svg">
<path d="M4.00016 12.3333H8.00016M2.40016 1.33331H9.60016C9.97353 1.33331 10.1602 1.33331 10.3028 1.40598C10.4283 1.46989 10.5303 1.57188 10.5942 1.69732C10.6668 1.83993 10.6668 2.02661 10.6668 2.39998V3.78299C10.6668 4.10911 10.6668 4.27217 10.63 4.42562C10.5973 4.56167 10.5435 4.69173 10.4703 4.81103C10.3879 4.94558 10.2726 5.06088 10.042 5.29148L8.08774 7.24573C7.82373 7.50974 7.69173 7.64175 7.64227 7.79397C7.59876 7.92786 7.59876 8.0721 7.64227 8.20599C7.69173 8.35821 7.82373 8.49022 8.08774 8.75423L10.042 10.7085C10.2726 10.9391 10.3879 11.0544 10.4703 11.1889C10.5435 11.3082 10.5973 11.4383 10.63 11.5743C10.6668 11.7278 10.6668 11.8908 10.6668 12.217V13.6C10.6668 13.9733 10.6668 14.16 10.5942 14.3026C10.5303 14.4281 10.4283 14.5301 10.3028 14.594C10.1602 14.6666 9.97353 14.6666 9.60016 14.6666H2.40016C2.02679 14.6666 1.84011 14.6666 1.6975 14.594C1.57206 14.5301 1.47007 14.4281 1.40616 14.3026C1.3335 14.16 1.3335 13.9733 1.3335 13.6V12.217C1.3335 11.8908 1.3335 11.7278 1.37034 11.5743C1.403 11.4383 1.45687 11.3082 1.52998 11.1889C1.61243 11.0544 1.72773 10.9391 1.95833 10.7085L3.91258 8.75423C4.17659 8.49022 4.3086 8.35821 4.35806 8.20599C4.40156 8.0721 4.40156 7.92786 4.35806 7.79397C4.3086 7.64175 4.17659 7.50974 3.91258 7.24573L1.95833 5.29148C1.72773 5.06088 1.61243 4.94558 1.52998 4.81103C1.45687 4.69173 1.403 4.56167 1.37034 4.42562C1.3335 4.27217 1.3335 4.10911 1.3335 3.78299V2.39998C1.3335 2.02661 1.3335 1.83993 1.40616 1.69732C1.47007 1.57188 1.57206 1.46989 1.6975 1.40598C1.84011 1.33331 2.02679 1.33331 2.40016 1.33331Z" stroke="#081D3F" stroke-width="1.4" stroke-linecap="round" stroke-linejoin="round"/>
</svg>
