<svg width="124" height="44" viewBox="0 0 124 44" fill="none" xmlns="http://www.w3.org/2000/svg">
<path d="M71.0282 15.0631H73.7125L79.2463 29.7727L84.3567 15.0631H86.1462L91.8921 30.2199L97.5432 15.0631H98.5088L92.2685 31.6085H89.9374L84.5445 17.1813L79.6469 31.6085H77.2447L71.0282 15.0631ZM100.141 31.6085V15.0396H102.472V31.6085H100.141ZM105.66 15.0396H108.345L119.224 29.4903V15.0396H120.119V31.6085H117.882L106.579 16.64V31.6085H105.66V15.0396Z" fill="#D710C1"/>
<path d="M43.105 15.0396H45.1773L52.9011 31.6085H50.1931L48.3092 27.4663H38.3955L36.4881 31.6085H35.499L43.105 15.0396ZM38.8193 26.572H47.8854L43.3876 16.6635L38.8193 26.572ZM61.8939 15.7927H57.5375V30.8554H61.8939C63.0085 30.8868 63.9739 30.6985 64.7903 30.2906C65.6223 29.8669 66.3131 29.3099 66.8626 28.6195C67.412 27.9291 67.8201 27.1368 68.0871 26.2424C68.3696 25.3481 68.5109 24.4302 68.5109 23.4888C68.5109 22.5474 68.3696 21.6217 68.0871 20.7116C67.8201 19.8015 67.4041 18.9935 66.839 18.2874C66.2895 17.5657 65.5988 16.9773 64.7667 16.5223C63.9504 16.0673 62.9928 15.8241 61.8939 15.7927ZM63.401 15.0396C64.6726 15.0396 65.7872 15.2749 66.7448 15.7456C67.7025 16.2163 68.5031 16.8439 69.1467 17.6285C69.7904 18.3973 70.2692 19.2838 70.5831 20.288C70.8971 21.2764 71.0541 22.2885 71.0541 23.324C71.0698 24.3596 70.9128 25.3716 70.5831 26.3601C70.2692 27.3486 69.7904 28.2351 69.1467 29.0196C68.5187 29.7884 67.726 30.4161 66.7684 30.9024C65.8108 31.3732 64.6883 31.6085 63.401 31.6085H55.2297V15.0396H63.401Z" fill="white"/>
<path fill-rule="evenodd" clip-rule="evenodd" d="M12.4327 8.19603C12.2257 8.27046 12.0473 8.33213 12.0364 8.33294C12.0255 8.33367 11.7758 8.66235 11.4815 9.06312C11.1873 9.46389 10.9353 9.80555 10.9218 9.82227C10.9083 9.83899 10.5521 9.74373 10.1304 9.6107C9.24086 9.32998 8.82234 9.30871 8.37316 9.52174C7.91949 9.73676 7.72872 10.0177 7.43574 10.9018C7.29522 11.3257 7.13368 11.7037 7.07664 11.7418C7.0196 11.7798 6.59816 11.8114 6.14001 11.8122C5.18578 11.8139 4.81517 11.9454 4.46999 12.405C4.27174 12.6688 4.2372 12.8368 4.19606 13.7347L4.149 14.7626L3.36044 15.0183C2.44405 15.3156 2.14084 15.5125 1.91351 15.9579C1.68721 16.4012 1.70661 16.8433 1.99211 17.7461C2.12644 18.1708 2.19771 18.5419 2.15101 18.5736C0.905346 19.4217 0.610238 19.7344 0.481839 20.3413C0.385541 20.7965 0.555922 21.2504 1.09691 21.9792L1.58837 22.6416L1.19471 23.1754C0.58868 23.9972 0.401256 24.4547 0.473457 24.9357C0.55074 25.4503 0.741175 25.6887 1.55985 26.295C1.92255 26.5635 2.21925 26.8142 2.21925 26.852C2.21925 26.8896 2.11336 27.2316 1.98393 27.6118C1.47184 29.1157 1.77815 29.7281 3.31808 30.2794L4.149 30.5769L4.19606 31.5628C4.24793 32.6487 4.3205 32.842 4.81989 33.2224C5.12581 33.4555 5.25524 33.4855 6.15234 33.5318L7.14602 33.5831L7.38901 34.2883C7.69893 35.1883 7.79659 35.3534 8.20095 35.6615C8.63172 35.9897 9.26141 35.9916 10.1913 35.6676L10.8681 35.4318L11.3977 36.1346C12.0172 36.9571 12.3698 37.2027 12.9317 37.2031C13.3947 37.2036 13.7345 37.0517 14.429 36.5343C14.6986 36.3334 14.9769 36.1691 15.0474 36.1691C15.118 36.1691 15.4057 36.343 15.6868 36.5556C16.9506 37.5112 17.7608 37.4348 18.5875 36.282C18.8265 35.9484 19.0648 35.6162 19.117 35.5434C19.1973 35.4314 19.298 35.441 19.7759 35.6061C21.547 36.2178 22.1815 35.947 22.6995 34.3579L22.9674 33.5361H23.8223C25.4273 33.5361 25.9409 33.0202 25.9409 31.4082V30.5425L26.8326 30.2457C27.8265 29.9149 28.1209 29.6656 28.2993 29.0036C28.4104 28.5913 28.364 28.3036 28.0292 27.3296L27.8514 26.8125L28.5758 26.2801C29.9255 25.2884 29.968 24.5296 28.7601 22.9993L28.4965 22.6656L28.9656 22.0275C29.5175 21.2766 29.6122 21.0571 29.6117 20.5294C29.6113 19.9805 29.3602 19.6228 28.5455 19.0103L27.8455 18.484L28.1223 17.6239C28.4655 16.5581 28.4286 16.1799 27.9304 15.653C27.6654 15.3727 27.4076 15.2311 26.7881 15.0253L25.988 14.7594L25.9409 13.7635C25.8902 12.6919 25.7992 12.4679 25.2463 12.0546C25.0346 11.8962 24.8026 11.8521 23.9828 11.8136L22.9787 11.7666L22.6781 10.9287C22.1335 9.41087 21.5514 9.11453 20.0575 9.59449C19.6434 9.72759 19.2764 9.83701 19.2422 9.83767C19.2079 9.83833 18.9869 9.56875 18.751 9.23861C17.7318 7.81176 17.0603 7.72075 15.5719 8.80763L15.0399 9.19615L14.3868 8.72168C13.4154 8.01585 13.1395 7.94163 12.4327 8.19603ZM12.3899 8.40503C12.202 8.49992 11.854 8.85537 11.566 9.24638L11.0674 9.92332L12.0796 10.2513C13.2321 10.6248 13.0415 10.6646 14.2111 9.80687L14.8599 9.33108L14.5406 9.06011C14.0322 8.6284 13.3041 8.24208 12.9975 8.24135C12.8422 8.24098 12.5688 8.31461 12.3899 8.40503ZM16.6598 8.35875C16.2747 8.51283 15.3059 9.20216 15.3064 9.32169C15.3067 9.37339 15.6795 9.6778 16.1349 9.99812L16.9628 10.5805L17.8226 10.3113C19.0974 9.9121 19.0554 9.97348 18.531 9.27674C18.2833 8.94769 17.9738 8.59995 17.8432 8.50395C17.5324 8.27552 17.0239 8.21311 16.6598 8.35875ZM14.2684 9.99093C13.8801 10.2773 13.5269 10.5458 13.4834 10.5879C13.3988 10.6697 14.7555 11.1554 15.0685 11.1554C15.2826 11.1554 16.7456 10.6837 16.6934 10.6316C16.5756 10.5139 15.0762 9.46345 15.0304 9.4666C14.9996 9.46865 14.6567 9.70464 14.2684 9.99093ZM8.38497 9.73001C8.22971 9.82483 8.04892 9.96739 7.9834 10.0467C7.85478 10.2024 7.39656 11.4847 7.39656 11.689C7.39656 11.7842 7.61793 11.8136 8.33023 11.8136C8.84369 11.8136 9.32861 11.7888 9.40764 11.7586C9.55666 11.7015 10.692 10.1964 10.6904 10.0581C10.6891 9.94723 9.35657 9.55673 8.9809 9.55717C8.8084 9.55739 8.5403 9.63512 8.38497 9.73001ZM20.034 9.77167C19.7105 9.88027 19.4457 10.0192 19.4457 10.0803C19.4457 10.1988 20.4524 11.6253 20.6181 11.7418C20.758 11.8399 22.6246 11.8305 22.6861 11.7313C22.7522 11.6244 22.3371 10.4052 22.1238 10.0801C21.7619 9.52827 21.065 9.42546 20.034 9.77167ZM10.3853 10.8645C10.0876 11.2699 9.84406 11.6494 9.84406 11.7077C9.84406 11.7778 10.1095 11.8136 10.6294 11.8136H11.4148L12.0813 11.3461C12.448 11.0888 12.7726 10.8385 12.8028 10.7898C12.8514 10.7113 11.2584 10.1162 11.0205 10.1241C10.9689 10.1258 10.6831 10.4589 10.3853 10.8645ZM18.1749 10.3927C17.7607 10.5321 17.3638 10.6672 17.2929 10.693C17.2132 10.7218 17.429 10.9355 17.8576 11.2519L18.5514 11.764L19.4359 11.7985C20.2007 11.8282 20.3128 11.8133 20.2649 11.6886C20.1526 11.3961 19.1521 10.1213 19.0419 10.1301C18.9793 10.1352 18.5891 10.2533 18.1749 10.3927ZM12.5873 11.2222C12.2693 11.4501 12.0091 11.6765 12.0091 11.7252C12.0091 11.9636 13.3555 11.7817 14.5406 11.3832C14.7326 11.3186 14.6671 11.284 13.8795 11.0342L13.1656 10.8078L12.5873 11.2222ZM16.1055 11.0527L15.3539 11.3113L15.9642 11.5226C16.6118 11.7467 18.1278 11.906 18.1278 11.7499C18.1278 11.6743 16.9489 10.7643 16.8798 10.7866C16.8673 10.7906 16.5188 10.9105 16.1055 11.0527ZM14.5743 11.5548C14.0555 11.7209 14.2325 11.8136 15.0685 11.8136C15.9311 11.8136 16.0842 11.7199 15.5047 11.5464C15.0842 11.4206 14.9904 11.4214 14.5743 11.5548ZM9.50603 12.1048C9.1986 12.4451 8.71947 13.1789 8.7894 13.2021C9.0531 13.29 10.6721 12.5059 10.9716 12.1452C11.1425 11.9395 9.69144 11.8995 9.50603 12.1048ZM11.2057 12.2344C10.949 12.4167 10.7831 12.566 10.837 12.566C10.891 12.566 11.2932 12.4422 11.731 12.2909C12.3482 12.0776 12.4599 12.0143 12.2287 12.0088C12.0646 12.005 11.8724 11.9794 11.8015 11.9523C11.7305 11.9251 11.4625 12.052 11.2057 12.2344ZM13.3675 11.9841C13.2675 12.0003 12.4789 12.2463 11.6149 12.5307L10.0439 13.0479L8.6968 14.0529C7.3882 15.0291 7.32176 15.0957 6.38372 16.3745L5.41791 17.6909L4.89603 19.2859L4.37426 20.8807L4.36898 22.6254L4.3638 24.37L4.87683 25.9673L5.38977 27.5648L6.38758 28.9322C7.37741 30.2888 7.39634 30.3077 8.73246 31.2814C10.0629 32.2513 10.0978 32.2695 11.5856 32.7752L13.0917 33.2872L14.8802 33.3242L16.6688 33.3612L18.316 32.8257L19.9634 32.2903L21.3754 31.2681C22.42 30.5119 22.8702 30.1231 23.1057 29.7741C23.2809 29.5147 23.7015 28.9326 24.0403 28.4806C24.6133 27.7167 24.6952 27.5428 25.2043 26.0132L25.7519 24.3675L25.7522 22.6605L25.7526 20.9535L25.2226 19.3404L24.6925 17.7273L23.7139 16.3736C22.7368 15.0221 22.7332 15.0185 21.3533 14.0122L19.9713 13.0043L18.4141 12.4949L16.857 11.9854L15.2031 11.9701C14.2934 11.9616 13.4674 11.968 13.3675 11.9841ZM17.9866 11.988C17.6159 12.0228 17.6224 12.0276 18.4032 12.2937C18.8396 12.4425 19.2113 12.5493 19.2295 12.5312C19.2747 12.486 18.6793 12.0447 18.5043 11.9937C18.4267 11.9712 18.1937 11.9685 17.9866 11.988ZM4.97728 12.186C4.51047 12.4703 4.38432 12.8102 4.38432 13.7837C4.38432 14.2518 4.41775 14.6348 4.4585 14.6348C4.49936 14.6348 4.95186 14.4943 5.46413 14.3228L6.39559 14.0109L6.70782 13.0805C6.87952 12.5687 7.02007 12.1166 7.02007 12.0759C7.02007 12.0351 6.62819 12.002 6.14934 12.0021C5.4518 12.0024 5.21864 12.039 4.97728 12.186ZM7.16654 12.3074C6.96161 12.8031 6.70679 13.7889 6.76779 13.8498C6.79876 13.8809 7.16098 13.789 7.57273 13.6459C8.27872 13.4003 8.34498 13.3528 8.73796 12.8112C8.96718 12.4953 9.18524 12.184 9.22252 12.1193C9.27505 12.0284 9.06411 12.0017 8.29164 12.0017H7.29287L7.16654 12.3074ZM18.975 12.0351C18.975 12.0534 19.2205 12.2406 19.5206 12.4508C19.9913 12.7807 21.0261 13.2242 21.3248 13.2242C21.378 13.2242 21.2234 12.9491 20.9812 12.613L20.5411 12.0017H19.7581C19.3273 12.0017 18.975 12.0168 18.975 12.0351ZM20.8591 12.0723C20.8599 12.111 21.068 12.4238 21.3217 12.7671C21.7677 13.3711 21.8076 13.3998 22.55 13.6466C22.9718 13.787 23.34 13.879 23.3679 13.8511C23.3959 13.8231 23.2838 13.3957 23.1189 12.901L22.8189 12.0017H21.8384C21.299 12.0017 20.8583 12.0336 20.8591 12.0723ZM23.1169 12.1056C23.1169 12.2868 23.6056 13.8306 23.7001 13.948C23.774 14.04 25.5034 14.6348 25.6967 14.6348C25.7275 14.6348 25.7526 14.273 25.7526 13.8307C25.7526 12.9338 25.6457 12.6361 25.184 12.248C24.9132 12.0204 24.8236 12.0017 24.0039 12.0017C23.419 12.0017 23.1169 12.0371 23.1169 12.1056ZM8.85565 13.4178C8.52665 13.5463 8.30528 13.7146 8.12002 13.9772C7.9743 14.1837 7.88119 14.3527 7.91318 14.3527C7.99206 14.3527 9.37337 13.329 9.37337 13.2705C9.37337 13.212 9.40793 13.2021 8.85565 13.4178ZM21.4208 13.8193C21.8082 14.1059 22.1408 14.3248 22.1598 14.3057C22.2339 14.2317 21.6567 13.5774 21.4472 13.4979C20.7503 13.2331 20.7433 13.318 21.4208 13.8193ZM7.23846 13.9426L6.56258 14.1758L6.32159 14.892C6.18896 15.286 6.0953 15.623 6.11327 15.641C6.19969 15.7273 7.30576 14.7957 7.59915 14.3894C8.18591 13.5773 8.20997 13.6072 7.23846 13.9426ZM22.0814 13.736C22.0814 13.7699 22.2557 14.0446 22.4688 14.3463C22.8612 14.9023 23.9641 15.7897 23.9641 15.5497C23.9641 15.3267 23.5781 14.2737 23.4633 14.1831C23.4022 14.1349 23.1192 14.0202 22.8345 13.9283C22.5497 13.8363 22.2639 13.7415 22.1991 13.7176C22.1344 13.6938 22.0814 13.702 22.0814 13.736ZM5.25506 14.5688L4.38432 14.8624V15.8826C4.38432 16.6722 4.41097 16.8874 4.50199 16.8349C4.56676 16.7977 4.88342 16.5763 5.20574 16.3428C5.75971 15.9416 5.80489 15.8792 6.02941 15.2057C6.27754 14.4615 6.31463 14.2531 6.1964 14.2669C6.15752 14.2714 5.73391 14.4073 5.25506 14.5688ZM23.8224 14.4453C24.2813 15.8896 24.2758 15.8803 24.9595 16.3961C25.3181 16.6665 25.6447 16.8886 25.6852 16.8898C25.7258 16.8908 25.7469 16.4371 25.7323 15.8815L25.7056 14.8713L24.9054 14.6119C24.4653 14.4693 24.0269 14.3271 23.9313 14.2963C23.787 14.2497 23.7684 14.2751 23.8224 14.4453ZM3.32203 15.1988C3.02259 15.2929 2.6711 15.4393 2.54101 15.5245C2.20344 15.7454 1.93761 16.2255 1.93724 16.6148C1.93686 16.9487 2.2699 18.0862 2.41449 18.2451C2.45732 18.2922 2.85504 18.0582 3.31996 17.7123L4.149 17.0956L4.17978 16.3343C4.21433 15.4807 4.14109 15.0066 3.97683 15.0195C3.91621 15.0242 3.62156 15.1049 3.32203 15.1988ZM25.9434 16.0688L25.9458 17.1267L26.7009 17.6722C27.1163 17.9721 27.5152 18.2401 27.5873 18.2678C27.683 18.3045 27.7869 18.0986 27.9723 17.5046C28.2002 16.774 28.2143 16.6517 28.1099 16.3035C28.0459 16.0901 27.8774 15.8072 27.7353 15.6747C27.5095 15.4639 26.3606 15.0109 26.0519 15.0109C25.9731 15.0109 25.9416 15.3177 25.9434 16.0688ZM6.33938 15.7432C6.01142 15.9815 5.59978 16.7267 5.72639 16.8531C5.76922 16.8959 6.45442 15.9961 6.68156 15.5987C6.77381 15.4373 6.74199 15.4507 6.33938 15.7432ZM23.4652 15.6989C23.6813 16.0541 24.3739 16.9837 24.4019 16.9558C24.5109 16.8469 24.092 16.0088 23.8278 15.8076C23.4912 15.5511 23.3495 15.5086 23.4652 15.6989ZM4.96617 16.753L4.38432 17.1759V17.993V18.81L4.81245 18.2222C5.18465 17.7112 5.6973 16.4793 5.58462 16.3666C5.56447 16.3465 5.28613 16.5204 4.96617 16.753ZM24.6433 16.9608C24.8011 17.4865 25.5611 18.7724 25.7139 18.7724C25.7351 18.7724 25.7526 18.4163 25.7526 17.9813V17.1903L25.1474 16.7589C24.8146 16.5215 24.5221 16.3274 24.4976 16.3274C24.4731 16.3274 24.5386 16.6124 24.6433 16.9608ZM3.25473 17.9848C2.86643 18.2714 2.53648 18.5392 2.52152 18.5797C2.48038 18.6911 3.06543 20.4658 3.14148 20.4602C3.17791 20.4576 3.42191 20.1508 3.68379 19.7784C4.12951 19.1448 4.16151 19.0608 4.1842 18.4661C4.20821 17.8344 4.14777 17.4524 4.02502 17.4597C3.98962 17.4618 3.64302 17.6981 3.25473 17.9848ZM25.9409 18.304V19.1521L26.4326 19.8086C26.7031 20.1697 26.9475 20.465 26.9759 20.465C27.0374 20.465 27.5411 18.8396 27.5411 18.6413C27.5411 18.5087 26.1929 17.4558 26.0233 17.4558C25.978 17.4558 25.9409 17.8375 25.9409 18.304ZM4.60111 18.842C4.37331 19.1562 4.33914 19.28 4.3719 19.6735L4.4105 20.1359L4.67887 19.3436C4.82657 18.9077 4.92965 18.5335 4.90809 18.512C4.88653 18.4904 4.74834 18.6389 4.60111 18.842ZM25.1879 18.5479C25.1879 18.6716 25.6417 20.0093 25.7052 20.0728C25.7312 20.0988 25.7509 19.891 25.7488 19.6109C25.7456 19.1855 25.699 19.0477 25.4664 18.7759C25.3132 18.5969 25.1879 18.4942 25.1879 18.5479ZM1.55854 19.2277C0.846604 19.7523 0.557427 20.2488 0.656456 20.7763C0.707194 21.0462 1.5784 22.4398 1.69644 22.4398C1.71686 22.4398 2.01264 22.0598 2.35378 21.5955L2.97411 20.7514L2.66488 19.7924C2.49488 19.265 2.31443 18.8204 2.26397 18.8044C2.21351 18.7884 1.896 18.9789 1.55854 19.2277ZM27.45 19.7641L27.1391 20.756L27.453 21.1982C28.1435 22.1706 28.3438 22.4327 28.3997 22.4361C28.4317 22.4381 28.6797 22.112 28.9506 21.7113C29.4184 21.0198 29.4413 20.9578 29.4022 20.4882C29.3728 20.1342 29.2964 19.9233 29.1336 19.7475C28.8621 19.454 27.9602 18.7724 27.8434 18.7724C27.798 18.7724 27.621 19.2187 27.45 19.7641ZM25.9409 20.2587C25.9409 20.9648 26.2316 22.1577 26.4036 22.1577C26.4415 22.1577 26.5709 21.8442 26.6913 21.4611L26.9099 20.7644L26.4543 20.1445C26.2037 19.8036 25.9857 19.5246 25.9698 19.5246C25.9539 19.5246 25.9409 19.855 25.9409 20.2587ZM3.6017 20.1994L3.1846 20.7801L3.41645 21.4688C3.544 21.8477 3.67711 22.1577 3.71231 22.1577C3.74752 22.1577 3.86735 21.8509 3.97861 21.4759C4.19116 20.7594 4.27335 19.6187 4.11238 19.6187C4.06098 19.6187 3.8312 19.88 3.6017 20.1994ZM2.52341 21.6756C1.76384 22.7156 1.77109 22.5909 2.41816 23.4733C2.73106 23.9001 3.02061 24.2125 3.06166 24.1673C3.1026 24.1223 3.24278 23.7631 3.37306 23.3691L3.60998 22.6527L3.34435 21.8785C3.19825 21.4526 3.06081 21.0862 3.03888 21.0643C3.01685 21.0424 2.78491 21.3175 2.52341 21.6756ZM26.9944 21.1856C26.9439 21.2806 26.8128 21.6503 26.7029 22.0071L26.5031 22.6559L26.7592 23.4411C26.8999 23.8731 27.041 24.2265 27.0724 24.2265C27.1039 24.2265 27.3864 23.8748 27.7002 23.445C28.2641 22.6723 28.2688 22.6607 28.1079 22.4341C27.1291 21.0549 27.088 21.0088 26.9944 21.1856ZM25.9475 22.6513L25.9542 23.5212L26.1384 23.1065C26.3127 22.7138 26.3145 22.6676 26.1713 22.2366C26.0881 21.9864 26.0021 21.7815 25.9804 21.7815C25.9587 21.7815 25.9439 22.173 25.9475 22.6513ZM3.92938 22.2742C3.82113 22.7005 3.95217 23.5196 4.11285 23.4205C4.22119 23.3535 4.22176 21.8756 4.11341 21.8756C4.06795 21.8756 3.98511 22.0549 3.92938 22.2742ZM1.2125 23.5C0.995243 23.8219 0.76753 24.1985 0.70644 24.3368C0.56524 24.6564 0.658148 25.1656 0.917864 25.4955C1.18671 25.8369 2.24025 26.5951 2.32299 26.5068C2.35942 26.468 2.51823 26.0162 2.67609 25.5027L2.96301 24.5692L2.37928 23.7411C2.05829 23.2858 1.7533 22.9134 1.70152 22.9137C1.64975 22.9141 1.42967 23.1779 1.2125 23.5ZM27.7404 23.7016C27.4237 24.137 27.1647 24.5495 27.1647 24.6182C27.1647 24.7359 27.7231 26.4928 27.783 26.5632C27.8502 26.6424 29.0876 25.6704 29.2521 25.409C29.5652 24.912 29.4536 24.2925 28.915 23.5387C28.668 23.1929 28.4322 22.91 28.3911 22.91C28.3498 22.91 28.0571 23.2662 27.7404 23.7016ZM3.41607 23.8052L3.18074 24.5301L3.61253 25.1248C3.85003 25.4519 4.08056 25.6972 4.1248 25.6699C4.34508 25.5339 4.01701 23.4808 3.72379 23.1598C3.68397 23.1162 3.5455 23.4067 3.41607 23.8052ZM26.1513 23.7066C26.004 24.1279 25.9409 24.5258 25.9409 25.0315C25.9409 25.862 25.972 25.8621 26.5436 25.0329L26.9 24.516L26.6913 23.8775C26.5764 23.5264 26.4552 23.2088 26.422 23.1719C26.3888 23.1348 26.2669 23.3754 26.1513 23.7066ZM26.4315 25.5003L25.9338 26.1971L25.9608 27.054L25.988 27.9108L26.8054 27.3296C27.255 27.0101 27.6078 26.6994 27.5894 26.6394C27.3121 25.7354 27.0349 24.9184 26.9882 24.8676C26.9558 24.8324 26.7053 25.117 26.4315 25.5003ZM2.7817 25.8004L2.4881 26.7159L2.75375 26.9296C2.89984 27.0473 3.2599 27.3129 3.55388 27.5199C4.06267 27.8783 4.09138 27.8871 4.1505 27.701C4.18467 27.5936 4.20049 27.2227 4.1857 26.877C4.16085 26.2987 4.12151 26.1935 3.69499 25.5665C3.43988 25.1915 3.19618 24.8847 3.15325 24.8847C3.11042 24.8847 2.94314 25.2968 2.7817 25.8004ZM4.37134 25.637C4.34376 25.9793 4.38847 26.1378 4.60516 26.4664C4.75257 26.6898 4.88983 26.856 4.91025 26.8357C4.93068 26.8153 4.82543 26.442 4.67633 26.0062L4.40541 25.2138L4.37134 25.637ZM25.6451 25.3078C25.5663 25.4303 25.1879 26.6605 25.1879 26.7939C25.1879 26.8503 25.3173 26.7207 25.4755 26.5057C25.7182 26.1761 25.7588 26.0444 25.7343 25.6644C25.7186 25.4166 25.6783 25.2561 25.6451 25.3078ZM4.36795 27.3291L4.33726 28.0809L4.9303 28.5156C5.25647 28.7546 5.54847 28.9251 5.57916 28.8945C5.68431 28.7894 5.20696 27.6588 4.8291 27.1181C4.62126 26.8206 4.4394 26.5774 4.4249 26.5774C4.4105 26.5774 4.38489 26.9156 4.36795 27.3291ZM25.284 27.0808C24.967 27.5004 24.3679 28.8928 24.4634 28.9883C24.4789 29.0038 24.7732 28.8168 25.1175 28.5727L25.7434 28.129L25.748 27.3532C25.7505 26.9265 25.7329 26.5774 25.7086 26.5774C25.6844 26.5774 25.4934 26.8039 25.284 27.0808ZM2.3052 27.2073C1.64806 28.915 1.89366 29.6158 3.31648 30.0937C3.71494 30.2276 4.06531 30.3128 4.09496 30.2831C4.12471 30.2535 4.15426 29.7709 4.16076 29.2106L4.17262 28.1922L3.41325 27.6434C2.35604 26.8793 2.42146 26.9051 2.3052 27.2073ZM26.7646 27.5781L25.9409 28.1913V29.2752C25.9409 30.1026 25.9688 30.3487 26.0586 30.3156C26.1234 30.2918 26.4728 30.1762 26.8351 30.0589C27.6 29.8111 27.9723 29.5047 28.1243 28.9981C28.2195 28.6808 28.2 28.5353 27.9633 27.7953C27.8152 27.3323 27.6702 26.9561 27.6411 26.9592C27.612 26.9624 27.2176 27.2409 26.7646 27.5781ZM4.38432 29.3827V30.4173L5.28452 30.7169C5.77966 30.8817 6.2076 30.9937 6.23556 30.9657C6.33449 30.867 5.78673 29.4224 5.58124 29.2401C5.46658 29.1385 5.15039 28.8961 4.87853 28.7016L4.38432 28.3481V29.3827ZM5.73675 28.5715C5.85968 29.0839 5.9732 29.2734 6.31095 29.5307C6.50073 29.6753 6.67318 29.7763 6.69436 29.7552C6.72721 29.7223 5.87662 28.498 5.72799 28.3641C5.69919 28.3382 5.70324 28.4316 5.73675 28.5715ZM23.8817 29.0064C23.6163 29.364 23.3993 29.6858 23.3993 29.7217C23.3993 29.7575 23.5675 29.6677 23.773 29.5221C24.0319 29.3388 24.1909 29.1297 24.2906 28.8418C24.3695 28.6133 24.4185 28.4105 24.3992 28.3912C24.3799 28.3721 24.1471 28.6488 23.8817 29.0064ZM25.0467 28.8342C24.6872 29.0927 24.3462 29.3996 24.2888 29.5159C24.1171 29.8649 23.8356 30.9 23.896 30.9604C23.9269 30.9913 24.3573 30.8817 24.8524 30.7169L25.7526 30.4173V29.3908C25.7526 28.8261 25.7409 28.3641 25.7266 28.3641C25.7122 28.3641 25.4062 28.5757 25.0467 28.8342ZM6.23348 30.1742C6.49489 31.0664 6.54027 31.1194 7.24288 31.3539C7.59841 31.4725 7.92419 31.5572 7.96689 31.5419C8.11246 31.49 7.22208 30.4178 6.72693 30.0487C6.45526 29.8463 6.20054 29.6806 6.16091 29.6806C6.12128 29.6806 6.15394 29.9028 6.23348 30.1742ZM23.2812 30.1303C22.737 30.5759 22.0192 31.4365 22.1133 31.5305C22.1411 31.5582 22.4705 31.4788 22.8453 31.354L23.5268 31.1271L23.7454 30.4795C24.0757 29.5017 24.0617 29.4912 23.2812 30.1303ZM4.38432 31.5571C4.38432 32.4306 4.39977 32.5056 4.63877 32.7893C4.77875 32.9555 5.03159 33.1492 5.20056 33.2197C5.52739 33.3561 7.02007 33.4005 7.02007 33.2737C7.02007 33.0615 6.43917 31.3836 6.33798 31.3036C6.24196 31.2277 5.65108 31.0217 4.50199 30.6635C4.41332 30.6359 4.38432 30.856 4.38432 31.5571ZM24.649 30.9645L23.6866 31.2932L23.3615 32.2971L23.0362 33.301L23.8379 33.3282C24.7452 33.3592 25.1759 33.2113 25.5112 32.7537C25.6698 32.5372 25.7115 32.3165 25.7379 31.5547C25.7558 31.0411 25.7345 30.6243 25.6909 30.6284C25.6472 30.6324 25.1783 30.7837 24.649 30.9645ZM7.96139 31.0449C7.96139 31.2615 8.5006 31.755 8.87759 31.8834C9.11605 31.9645 9.32458 32.0176 9.3408 32.0013C9.35723 31.9849 9.10644 31.7803 8.78368 31.5465C8.09155 31.0453 7.96139 30.966 7.96139 31.0449ZM21.3955 31.4822C21.0442 31.7461 20.7728 31.978 20.7925 31.9978C20.8768 32.0819 21.6722 31.7253 21.8252 31.5347C22.069 31.2311 22.1931 30.9967 22.1082 30.9998C22.0676 31.0013 21.7469 31.2184 21.3955 31.4822ZM6.68532 31.5448C6.71865 31.6495 6.86427 32.0874 7.00896 32.5181L7.27215 33.301L8.27572 33.3277C8.8277 33.3423 9.27924 33.3212 9.27924 33.2806C9.27924 33.2401 9.05684 32.9136 8.78507 32.5551C8.32722 31.9511 8.24483 31.8878 7.66335 31.6941C6.54563 31.3216 6.61792 31.3326 6.68532 31.5448ZM22.6921 31.5991C22.3291 31.7146 21.9625 31.8485 21.8773 31.8967C21.7472 31.9705 21.0649 32.8345 20.824 33.2304C20.7685 33.3216 20.9837 33.348 21.7858 33.348H22.8189L23.1169 32.4545C23.2807 31.9631 23.4008 31.5224 23.3835 31.4751C23.3664 31.4279 23.0552 31.4836 22.6921 31.5991ZM8.71448 32.0715C8.71448 32.1004 8.91281 32.3995 9.15509 32.736L9.59584 33.348H10.3789C10.8096 33.348 11.1619 33.3292 11.1619 33.3062C11.1619 33.1939 10.0442 32.4846 9.6199 32.3277C8.9302 32.0726 8.71448 32.0115 8.71448 32.0715ZM20.6337 32.2769C20.2774 32.3982 19.7478 32.6784 19.457 32.8992L18.928 33.301L19.6664 33.3286C20.1041 33.345 20.4554 33.3143 20.5289 33.2534C20.7035 33.1086 21.368 32.1328 21.3204 32.0908C21.2989 32.0717 20.9898 32.1554 20.6337 32.2769ZM10.7854 32.743C10.7854 32.7604 10.9731 32.9038 11.2024 33.0614C11.537 33.2913 11.717 33.348 12.1124 33.348C12.3835 33.348 12.5834 33.3262 12.5568 33.2995C12.4949 33.2377 10.7854 32.7007 10.7854 32.743ZM18.3632 33.0082L17.5159 33.301L17.9582 33.3295C18.3892 33.3572 18.6986 33.2493 19.1094 32.9278C19.4187 32.6855 19.2417 32.7047 18.3632 33.0082ZM7.42532 33.7971C7.52856 34.3127 7.89807 35.174 8.10446 35.3802C8.22017 35.4958 8.48674 35.6418 8.6968 35.7048C9.03747 35.8067 9.16624 35.7917 9.89285 35.5653C10.4875 35.3801 10.6936 35.2764 10.6568 35.1808C10.6291 35.1087 10.3608 34.7103 10.0606 34.2953L9.51461 33.541L8.44381 33.5385L7.37308 33.5361L7.42532 33.7971ZM9.87326 33.6643C9.99799 33.9891 10.9192 35.1347 11.0554 35.1347C11.2425 35.1347 12.6859 34.6676 12.79 34.5734C12.8311 34.5361 12.5655 34.2875 12.1995 34.0208L11.5345 33.5361H10.6792C9.99543 33.5361 9.83379 33.5618 9.87326 33.6643ZM11.9668 33.6166C12.0159 33.6609 12.3059 33.8782 12.6109 34.0997L13.1657 34.5023L13.6935 34.3365C14.7804 33.9952 14.7705 34.0117 14.0382 33.7605C13.5622 33.597 13.1796 33.5361 12.6309 33.5361C12.206 33.5361 11.9163 33.5711 11.9668 33.6166ZM14.4095 33.6805C14.7639 33.8426 15.2535 33.8413 15.6803 33.6771C15.9917 33.5573 15.9579 33.5504 15.0685 33.5508C14.1957 33.5513 14.1477 33.5608 14.4095 33.6805ZM16.0275 33.7503C15.7266 33.8536 15.5147 33.9694 15.5569 34.0075C15.5988 34.0457 15.9209 34.1709 16.2723 34.2856L16.9115 34.4942L17.429 34.1382C18.2681 33.5608 18.2651 33.5342 17.3627 33.5493C16.8515 33.558 16.3824 33.6286 16.0275 33.7503ZM17.8651 34.0457C17.306 34.4544 17.21 34.5601 17.3474 34.6158C17.9011 34.8407 18.8483 35.1345 19.015 35.1332C19.1497 35.132 19.3711 34.9082 19.7281 34.4125C20.0129 34.017 20.2599 33.6579 20.2772 33.6147C20.2945 33.5714 19.9132 33.5378 19.43 33.54L18.5514 33.5438L17.8651 34.0457ZM19.9637 34.4031L19.3429 35.2701L19.7002 35.3957C21.0129 35.8574 21.5847 35.8394 22.0201 35.3225C22.2389 35.0627 22.5615 34.3294 22.7007 33.775L22.7607 33.5361H21.6727H20.5846L19.9637 34.4031ZM14.1285 34.3738L13.3768 34.6324L14.1602 35.2128C14.5911 35.5318 14.9881 35.7929 15.0426 35.7929C15.1734 35.7929 16.6216 34.7493 16.6216 34.6551C16.6216 34.585 15.1272 34.0924 14.9607 34.1076C14.9165 34.1117 14.542 34.2315 14.1285 34.3738ZM12.0327 35.0532C11.5538 35.2054 11.1628 35.3811 11.1638 35.4439C11.1668 35.6225 12.1314 36.7652 12.3894 36.8955C12.8493 37.1281 13.356 37.0451 13.9517 36.6396C14.7057 36.1264 14.8741 35.9906 14.8214 35.938C14.5748 35.6915 13.1688 34.7606 13.0537 34.7675C12.971 34.7724 12.5115 34.9009 12.0327 35.0532ZM16.1058 35.3212C15.6926 35.6265 15.3413 35.9159 15.325 35.9644C15.3088 36.013 15.5806 36.2559 15.929 36.5042C16.6916 37.0479 17.3063 37.1575 17.8117 36.8401C18.082 36.6704 19.0444 35.4481 18.9629 35.3782C18.8818 35.3089 17.1268 34.7589 16.9981 34.7625C16.9204 34.7645 16.519 35.0161 16.1058 35.3212Z" fill="white"/>
</svg>
