<svg width="135" height="144" viewBox="0 0 135 144" fill="none" xmlns="http://www.w3.org/2000/svg">
<path fill-rule="evenodd" clip-rule="evenodd" d="M55.3903 0.659245C54.4397 1.02667 53.6209 1.33101 53.5708 1.33472C53.5211 1.33843 52.3748 2.95985 51.0241 4.93711C49.6734 6.91436 48.5171 8.5998 48.4549 8.68238C48.3927 8.76496 46.7581 8.295 44.8223 7.63855C40.7391 6.25373 38.8181 6.14888 36.7562 7.19967C34.6739 8.26067 33.7981 9.64642 32.4534 14.0082C31.8083 16.0996 31.0669 17.9646 30.805 18.152C30.5432 18.3395 28.6087 18.4958 26.5058 18.5C22.1257 18.5079 20.4246 19.1569 18.8401 21.4241C17.9301 22.7259 17.7716 23.5545 17.5827 27.9845L17.3667 33.0552L13.7471 34.3171C9.54074 35.7835 8.14899 36.755 7.1055 38.9526C6.06677 41.1396 6.15577 43.3205 7.46629 47.7742C8.08288 49.8697 8.40998 51.7004 8.19566 51.8572C2.47786 56.0413 1.12328 57.5834 0.533913 60.5781C0.0918884 62.8235 0.873963 65.0628 3.35716 68.6587L5.61307 71.9262L3.8061 74.5599C1.02433 78.6141 0.164027 80.8711 0.495437 83.2441C0.85018 85.7832 1.7243 86.9588 5.48216 89.9501C7.14699 91.2751 8.50892 92.5115 8.50892 92.698C8.50892 92.884 8.02282 94.5709 7.4287 96.4465C5.07815 103.866 6.48416 106.887 13.5527 109.607L17.3667 111.075L17.5827 115.939C17.8208 121.296 18.154 122.25 20.4462 124.127C21.8505 125.277 22.4446 125.425 26.5623 125.653L31.1235 125.906L32.2387 129.385C33.6616 133.825 34.1096 134.64 35.9659 136.159C37.9431 137.779 40.8333 137.788 45.1019 136.19L48.2081 135.027L50.6391 138.494C53.4831 142.551 55.1012 143.763 57.6803 143.765C59.8058 143.767 61.3656 143.018 64.5535 140.466C65.791 139.475 67.0683 138.664 67.3919 138.664C67.716 138.664 69.0369 139.522 70.3271 140.571C76.1278 145.285 79.8468 144.908 83.6414 139.22C84.7385 137.575 85.8325 135.936 86.0719 135.577C86.4409 135.025 86.9028 135.072 89.0965 135.886C97.2262 138.904 100.138 137.568 102.516 129.729L103.746 125.674H107.67C115.037 125.674 117.395 123.129 117.395 115.176V110.905L121.488 109.441C126.05 107.809 127.401 106.579 128.22 103.313C128.73 101.279 128.517 99.8596 126.981 95.0547L126.164 92.5031L129.49 89.8768C135.684 84.9843 135.88 81.2404 130.335 73.6909L129.125 72.0445L131.279 68.8967C133.812 65.1923 134.246 64.109 134.244 61.5059C134.242 58.798 133.09 57.0332 129.35 54.0117L126.137 51.4146L127.408 47.1715C128.983 41.9134 128.814 40.0475 126.527 37.4481C125.311 36.0656 124.127 35.3669 121.283 34.3514L117.611 33.0399L117.395 28.1264C117.162 22.84 116.744 21.7345 114.206 19.6955C113.235 18.9143 112.17 18.6962 108.407 18.5069L103.798 18.275L102.418 14.1409C99.9181 6.65271 97.2465 5.19087 90.3893 7.55875C88.4881 8.21521 86.8038 8.75522 86.6466 8.75846C86.4893 8.76171 85.4748 7.43163 84.392 5.80279C79.7138 -1.23636 76.6317 -1.68543 69.7995 3.67662L67.3574 5.59356L64.3596 3.25259C59.9009 -0.229636 58.6344 -0.595675 55.3903 0.659245ZM55.1937 1.69055C54.3313 2.15865 52.7338 3.9123 51.4121 5.8413L49.1233 9.1811L53.7691 10.7993C59.0596 12.642 58.1846 12.8382 63.5533 8.60629L66.5312 6.2593L65.0656 4.92226C62.7319 2.79238 59.3901 0.886569 57.9828 0.882858C57.2699 0.881002 56.0147 1.24426 55.1937 1.69055ZM74.7932 1.4623C73.0255 2.22221 68.5785 5.62325 68.581 6.2129C68.5823 6.46806 70.2934 7.96979 72.3838 9.54992L76.184 12.4235L80.1307 11.0948C85.982 9.12543 85.7893 9.42838 83.3822 5.99115C82.2453 4.36787 80.8246 2.65227 80.2253 2.1786C78.7982 1.05173 76.4645 0.74368 74.7932 1.4623ZM63.816 9.51467C62.0336 10.9273 60.4124 12.2523 60.2132 12.4597C59.8248 12.8633 66.052 15.2595 67.4887 15.2595C68.4717 15.2595 75.1872 12.9324 74.9474 12.6749C74.4069 12.0946 67.5242 6.91204 67.3142 6.92781C67.1724 6.93802 65.5984 8.10201 63.816 9.51467ZM36.8106 8.22727C36.0976 8.6949 35.268 9.39822 34.9673 9.78977C34.3767 10.558 32.2737 16.8837 32.2737 17.8922C32.2737 18.3613 33.2895 18.5069 36.5591 18.5069C38.9162 18.5069 41.1418 18.3845 41.5048 18.2351C42.1888 17.9535 47.3997 10.5283 47.3928 9.84591C47.3868 9.29894 41.2702 7.37225 39.5457 7.37457C38.7541 7.3755 37.5235 7.75917 36.8106 8.22727ZM90.2813 8.43279C88.7962 8.96862 87.5807 9.65384 87.5807 9.95539C87.5807 10.5399 92.2019 17.5777 92.9624 18.152C93.6045 18.6364 102.173 18.59 102.455 18.1005C102.758 17.5731 100.853 11.5583 99.8736 9.95447C98.2127 7.23215 95.0139 6.72461 90.2813 8.43279ZM45.9924 13.8241C44.6257 15.8245 43.5079 17.6965 43.5079 17.9841C43.5079 18.3302 44.7264 18.5069 47.1128 18.5069H50.7177L53.7773 16.1998C55.4603 14.931 56.9502 13.696 57.0889 13.4557C57.3118 13.0683 50 10.1326 48.9081 10.1716C48.6709 10.1799 47.3591 11.8236 45.9924 13.8241ZM81.7476 11.4966C79.8464 12.1841 78.0247 12.8508 77.6989 12.9779C77.3334 13.1203 78.3242 14.1743 80.2914 15.7354L83.4759 18.262L87.5358 18.4318C91.0465 18.5784 91.5611 18.5051 91.3412 17.8899C90.8257 16.4471 86.2331 10.1577 85.7275 10.2013C85.4398 10.2263 83.6488 10.809 81.7476 11.4966ZM56.0998 15.5889C54.6402 16.7134 53.4459 17.8301 53.4459 18.0704C53.4459 19.2464 59.6256 18.3492 65.066 16.3831C65.947 16.0648 65.6463 15.8941 62.0311 14.6615L58.7541 13.5443L56.0998 15.5889ZM72.2486 14.7529L68.7988 16.0287L71.6004 17.0711C74.5728 18.1766 81.5315 18.9625 81.5315 18.1924C81.5315 17.8194 76.1201 13.33 75.8029 13.4399C75.7455 13.4599 74.1459 14.0509 72.2486 14.7529ZM65.2203 17.2297C62.839 18.0495 63.6514 18.5069 67.4887 18.5069C71.4484 18.5069 72.1509 18.0444 69.491 17.1885C67.5609 16.5677 67.1301 16.5719 65.2203 17.2297ZM41.9563 19.9433C40.5451 21.6222 38.3458 25.2422 38.6668 25.3568C39.8771 25.7901 47.3086 21.9219 48.6835 20.1427C49.4681 19.1277 42.8075 18.9305 41.9563 19.9433ZM49.7581 20.5825C48.5798 21.4821 47.818 22.2183 48.0656 22.2183C48.3136 22.2183 50.1599 21.6078 52.1691 20.8614C55.0023 19.8092 55.5152 19.497 54.4535 19.4696C53.7004 19.4506 52.8181 19.3248 52.4927 19.1908C52.1669 19.0567 50.9368 19.683 49.7581 20.5825ZM59.6809 19.348C59.222 19.4278 55.602 20.6415 51.6363 22.0444L44.4252 24.596L38.2417 29.5539C32.2352 34.37 31.9302 34.6989 27.6244 41.0074L23.1912 47.5023L20.7957 55.371L18.4007 63.2391L18.3765 71.8464L18.3527 80.4531L20.7076 88.3338L23.062 96.2145L27.6421 102.961C32.1855 109.654 32.2724 109.747 38.4054 114.551C44.5125 119.335 44.6724 119.425 51.5015 121.92L58.4149 124.446L66.6245 124.629L74.8342 124.811L82.3957 122.169L89.9572 119.528L96.4385 114.485C101.233 110.754 103.3 108.836 104.381 107.114C105.185 105.835 107.115 102.963 108.671 100.733C111.301 96.9643 111.677 96.1064 114.014 88.5598L116.527 80.4411L116.529 72.0194L116.531 63.5982L114.097 55.64L111.664 47.6819L107.172 41.0036C102.687 34.3356 102.671 34.318 96.337 29.3535L89.9935 24.3812L82.8459 21.8676L75.6984 19.3541L68.1066 19.2784C63.9309 19.2367 60.1394 19.2682 59.6809 19.348ZM80.8834 19.3671C79.1819 19.5387 79.2117 19.5624 82.7958 20.8753C84.7986 21.6092 86.5048 22.1362 86.5882 22.0467C86.7961 21.8235 84.0631 19.6468 83.2599 19.3954C82.9034 19.284 81.834 19.271 80.8834 19.3671ZM21.1686 20.3441C19.0259 21.7465 18.4469 23.4232 18.4469 28.2262C18.4469 30.5356 18.6003 32.4247 18.7874 32.4247C18.9749 32.4247 21.052 31.7321 23.4034 30.8859L27.6789 29.347L29.1121 24.7565C29.9002 22.2318 30.5453 20.0017 30.5453 19.8004C30.5453 19.5995 28.7466 19.4357 26.5485 19.4366C23.3468 19.438 22.2765 19.6185 21.1686 20.3441ZM31.2177 20.9426C30.277 23.3884 29.1074 28.2517 29.3874 28.5523C29.5295 28.7054 31.1922 28.2522 33.0821 27.5461C36.3228 26.3348 36.6269 26.1005 38.4309 23.4283C39.483 21.8695 40.4837 20.3339 40.6549 20.0147C40.896 19.5661 39.9277 19.4348 36.382 19.4348H31.7975L31.2177 20.9426ZM85.4203 19.5995C85.4203 19.6899 86.5472 20.6132 87.9247 21.6505C90.0851 23.2775 94.835 25.4658 96.2065 25.4658C96.4502 25.4658 95.7407 24.1088 94.6294 22.4503L92.6089 19.4348H89.0148C87.0376 19.4348 85.4203 19.509 85.4203 19.5995ZM94.0685 19.7827C94.072 19.9739 95.0273 21.5169 96.1918 23.2107C98.239 26.1905 98.4226 26.332 101.83 27.5498C103.766 28.2424 105.456 28.6961 105.584 28.5584C105.713 28.4206 105.198 26.3116 104.441 23.8713L103.065 19.4348H98.5635C96.0877 19.4348 94.0651 19.5916 94.0685 19.7827ZM104.432 19.9474C104.432 20.841 106.675 28.4572 107.109 29.0367C107.449 29.4904 115.386 32.4247 116.274 32.4247C116.415 32.4247 116.531 30.64 116.531 28.4582C116.531 24.0332 116.04 22.5644 113.92 20.6498C112.678 19.5271 112.266 19.4348 108.504 19.4348C105.819 19.4348 104.432 19.6092 104.432 19.9474ZM38.971 26.4211C37.4609 27.0548 36.4446 27.8852 35.5943 29.1805C34.9254 30.1993 34.4981 31.0329 34.645 31.0329C35.007 31.0329 41.3475 25.9826 41.3475 25.6945C41.3475 25.4055 41.5061 25.3568 38.971 26.4211ZM96.6468 28.4016C98.4248 29.8156 99.9514 30.8956 100.039 30.8014C100.379 30.4363 97.7296 27.2083 96.7678 26.8159C93.569 25.5099 93.5371 25.9284 96.6468 28.4016ZM31.5478 29.0098L28.4454 30.1608L27.3393 33.694C26.7305 35.6374 26.3005 37.3001 26.383 37.3887C26.7797 37.8146 31.8567 33.2185 33.2035 31.2143C35.8967 27.2079 36.0074 27.3554 31.5478 29.0098ZM99.6792 27.9905C99.6792 28.158 100.479 29.5131 101.457 31.0019C103.259 33.7446 108.321 38.1227 108.321 36.9383C108.321 35.8388 106.549 30.6432 106.022 30.1965C105.742 29.9585 104.443 29.393 103.136 28.9392C101.829 28.4855 100.517 28.0179 100.219 27.9C99.9224 27.7827 99.6792 27.823 99.6792 27.9905ZM22.4437 32.0995L18.4469 33.5479V38.581C18.4469 42.4761 18.5692 43.5381 18.987 43.2792C19.2843 43.0955 20.7378 42.0029 22.2173 40.851C24.7601 38.8719 24.9675 38.5639 25.9981 35.2412C27.137 31.5697 27.3073 30.5416 26.7646 30.6098C26.5861 30.6321 24.6417 31.3025 22.4437 32.0995ZM107.671 31.4904C109.777 38.6153 109.752 38.5694 112.89 41.1141C114.536 42.4483 116.035 43.5441 116.221 43.5497C116.407 43.5548 116.505 41.3163 116.437 38.5754L116.314 33.5915L112.642 32.312C110.622 31.6082 108.61 30.9072 108.17 30.7546C107.508 30.5249 107.423 30.6507 107.671 31.4904ZM13.5708 35.2078C12.1964 35.6713 10.5829 36.3941 9.9858 36.8144C8.43634 37.9042 7.21613 40.2725 7.2144 42.1931C7.21268 43.8405 8.74137 49.4522 9.40506 50.2362C9.60166 50.4687 11.4272 49.3139 13.5613 47.6081L17.3667 44.5652L17.508 40.8097C17.6666 36.5982 17.3304 34.2595 16.5764 34.3226C16.2982 34.3458 14.9457 34.7443 13.5708 35.2078ZM117.406 39.4996L117.417 44.7188L120.883 47.4095C122.79 48.8895 124.621 50.2116 124.952 50.348C125.391 50.5294 125.868 49.5134 126.719 46.5828C127.766 42.9786 127.83 42.375 127.351 40.6571C127.057 39.6049 126.284 38.209 125.632 37.5553C124.595 36.5156 119.321 34.2804 117.904 34.2804C117.542 34.2804 117.398 35.7942 117.406 39.4996ZM27.4209 37.893C25.9155 39.0686 24.026 42.7452 24.6072 43.3687C24.8038 43.5798 27.9489 39.141 28.9916 37.18C29.415 36.3839 29.2689 36.4502 27.4209 37.893ZM106.031 37.6745C107.023 39.4272 110.202 44.0131 110.331 43.8753C110.831 43.3381 108.908 39.2036 107.695 38.2108C106.151 36.9457 105.5 36.736 106.031 37.6745ZM21.1176 42.8751L18.4469 44.9614V48.9924V53.023L20.412 50.1235C22.1205 47.6025 24.4736 41.5246 23.9564 40.9688C23.864 40.8696 22.5863 41.7274 21.1176 42.8751ZM111.438 43.9004C112.163 46.4937 115.651 52.8375 116.353 52.8375C116.45 52.8375 116.531 51.081 116.531 48.9349V45.0324L113.753 42.9039C112.225 41.7329 110.882 40.7754 110.77 40.7754C110.658 40.7754 110.958 42.1815 111.438 43.9004ZM13.2619 48.9521C11.4795 50.3661 9.96504 51.6869 9.89634 51.8869C9.70752 52.4362 12.393 61.1918 12.7421 61.1645C12.9093 61.1515 14.0293 59.6382 15.2313 57.801C17.2773 54.6751 17.4242 54.2603 17.5283 51.3265C17.6385 48.2098 17.3611 46.3253 16.7976 46.3615C16.6352 46.3717 15.0442 47.5376 13.2619 48.9521ZM117.395 50.5266V54.7108L119.652 57.9495C120.893 59.7309 122.015 61.1881 122.145 61.1881C122.428 61.1881 124.74 53.1692 124.74 52.1908C124.74 51.5371 118.551 46.3425 117.773 46.3425C117.565 46.3425 117.395 48.2256 117.395 50.5266ZM19.442 53.1808C18.3963 54.7312 18.2395 55.3417 18.3899 57.2833L18.567 59.5644L19.7989 55.6554C20.4769 53.5051 20.95 51.6591 20.8511 51.5528C20.7521 51.4466 20.1178 52.1792 19.442 53.1808ZM113.938 51.7301C113.938 52.3406 116.021 58.9399 116.313 59.2531C116.432 59.3816 116.523 58.3563 116.513 56.9743C116.498 54.876 116.284 54.1958 115.217 52.8551C114.514 51.9718 113.938 51.4652 113.938 51.7301ZM5.47611 55.0838C2.20824 57.672 0.880875 60.1216 1.33543 62.7237C1.56832 64.0557 5.56727 70.9306 6.1091 70.9306C6.20287 70.9306 7.5605 69.0563 9.12638 66.7654L11.9738 62.6008L10.5544 57.8697C9.77408 55.268 8.94575 53.0745 8.71415 52.9957C8.48255 52.9168 7.02514 53.8562 5.47611 55.0838ZM124.322 57.7305L122.895 62.624L124.336 64.8054C127.505 69.6028 128.425 70.8953 128.681 70.9125C128.828 70.9222 129.966 69.3133 131.21 67.3365C133.357 63.9248 133.462 63.6191 133.283 61.3023C133.148 59.556 132.797 58.5159 132.05 57.6484C130.803 56.2005 126.663 52.8375 126.127 52.8375C125.919 52.8375 125.107 55.0393 124.322 57.7305ZM117.395 60.1703C117.395 63.6534 118.729 69.5388 119.519 69.5388C119.693 69.5388 120.287 67.9921 120.839 66.102L121.843 62.6653L119.751 59.6071C118.601 57.9249 117.6 56.5489 117.527 56.5489C117.454 56.5489 117.395 58.1786 117.395 60.1703ZM14.8545 59.8775L12.94 62.7427L14.0042 66.1405C14.5897 68.0097 15.2007 69.5388 15.3623 69.5388C15.5239 69.5388 16.0739 68.0255 16.5846 66.1753C17.5603 62.6407 17.9375 57.0128 17.1986 57.0128C16.9627 57.0128 15.908 58.302 14.8545 59.8775ZM9.905 67.1602C6.4185 72.2913 6.45175 71.6761 9.42191 76.0296C10.8582 78.1353 12.1873 79.676 12.3757 79.4534C12.5636 79.2311 13.207 77.4589 13.805 75.5151L14.8926 71.9809L13.6732 68.1614C13.0026 66.0603 12.3718 64.2528 12.2711 64.1447C12.17 64.0366 11.1053 65.3936 9.905 67.1602ZM122.23 64.7432C121.999 65.2118 121.397 67.0359 120.892 68.796L119.976 71.9967L121.151 75.8709C121.797 78.0017 122.444 79.7452 122.589 79.7452C122.733 79.7452 124.03 78.0101 125.47 75.8895C128.059 72.0779 128.08 72.0203 127.342 70.9023C122.849 64.0983 122.66 63.871 122.23 64.7432ZM117.425 71.9744L117.456 76.2657L118.301 74.2198C119.101 72.2825 119.11 72.0542 118.452 69.9285C118.07 68.6935 117.676 67.6831 117.576 67.6831C117.476 67.6831 117.409 69.6144 117.425 71.9744ZM16.3586 70.1136C15.8617 72.2166 16.4632 76.2578 17.2008 75.7689C17.6981 75.4385 17.7007 68.147 17.2034 68.147C16.9947 68.147 16.6144 69.0317 16.3586 70.1136ZM3.88776 76.1609C2.8905 77.7494 1.84529 79.6074 1.56487 80.2894C0.916736 81.8662 1.3432 84.3784 2.53532 86.0059C3.76936 87.6904 8.60526 91.431 8.98507 90.9954C9.15229 90.8038 9.88124 88.5746 10.6058 86.0416L11.9228 81.4357L9.24347 77.3504C7.77005 75.1041 6.3701 73.2669 6.13245 73.2688C5.8948 73.2706 4.88458 74.5719 3.88776 76.1609ZM125.655 77.156C124.201 79.304 123.012 81.3387 123.012 81.6779C123.012 82.2587 125.575 90.9258 125.85 91.2733C126.159 91.6639 131.838 86.8687 132.594 85.5795C134.031 83.1272 133.518 80.0713 131.046 76.352C129.913 74.6462 128.83 73.2502 128.641 73.2502C128.452 73.2502 127.108 75.0076 125.655 77.156ZM14.0025 77.6672L12.9223 81.2432L14.9042 84.1771C15.9944 85.7911 17.0526 87.001 17.2556 86.8664C18.2667 86.1956 16.7609 76.0667 15.4149 74.4829C15.2322 74.2676 14.5966 75.7007 14.0025 77.6672ZM118.36 77.1806C117.685 79.259 117.395 81.2218 117.395 83.7164C117.395 87.8142 117.537 87.8147 120.161 83.7238L121.797 81.1736L120.839 78.0235C120.312 76.2912 119.756 74.7246 119.603 74.5422C119.451 74.3594 118.891 75.5466 118.36 77.1806ZM119.647 86.0295L117.362 89.4672L117.486 93.6945L117.611 97.9218L121.363 95.0547C123.427 93.4778 125.046 91.9455 124.962 91.6495C123.688 87.1893 122.416 83.1587 122.202 82.9082C122.053 82.7342 120.903 84.1385 119.647 86.0295ZM11.0906 87.5099L9.74296 92.0267L10.9623 93.0812C11.6329 93.6616 13.2856 94.9717 14.635 95.9933C16.9705 97.7613 17.1023 97.8044 17.3736 96.8868C17.5305 96.357 17.6031 94.5272 17.5352 92.8214C17.4211 89.9687 17.2405 89.4496 15.2827 86.3561C14.1118 84.506 12.9931 82.9927 12.7961 82.9927C12.5995 82.9927 11.8317 85.0256 11.0906 87.5099ZM18.3873 86.7041C18.2607 88.3928 18.4659 89.1745 19.4606 90.7959C20.1372 91.8982 20.7672 92.7179 20.861 92.6177C20.9547 92.5171 20.4717 90.6757 19.7872 88.5254L18.5437 84.6164L18.3873 86.7041ZM116.037 85.0803C115.675 85.6843 113.938 91.7534 113.938 92.4113C113.938 92.6901 114.532 92.0503 115.258 90.9898C116.372 89.3637 116.559 88.7138 116.447 86.8391C116.374 85.6166 116.19 84.8251 116.037 85.0803ZM18.3717 95.0519L18.2309 98.761L20.953 100.905C22.4502 102.085 23.7905 102.926 23.9314 102.775C24.414 102.256 22.2229 96.6785 20.4885 94.0109C19.5345 92.5435 18.6997 91.3433 18.6332 91.3433C18.567 91.3433 18.4495 93.0121 18.3717 95.0519ZM114.38 93.8272C112.924 95.8972 110.175 102.767 110.613 103.237C110.684 103.314 112.035 102.391 113.615 101.187L116.488 98.9981L116.509 95.1707C116.521 93.0654 116.44 91.3433 116.328 91.3433C116.217 91.3433 115.341 92.4609 114.38 93.8272ZM8.90343 94.4507C5.88703 102.876 7.01435 106.333 13.5453 108.691C15.3744 109.352 16.9826 109.772 17.1187 109.626C17.2552 109.48 17.3909 107.099 17.4207 104.335L17.4751 99.3099L13.9895 96.6024C9.13676 92.833 9.43706 92.9601 8.90343 94.4507ZM121.175 96.2804L117.395 99.3057V104.653C117.395 108.735 117.523 109.949 117.935 109.786C118.232 109.668 119.836 109.098 121.5 108.519C125.01 107.297 126.72 105.785 127.417 103.286C127.854 101.72 127.764 101.003 126.678 97.3521C125.998 95.0677 125.333 93.2115 125.199 93.2273C125.066 93.2426 123.255 94.6168 121.175 96.2804ZM18.4469 105.183V110.288L22.5789 111.766C24.8517 112.579 26.816 113.131 26.9443 112.993C27.3985 112.506 24.8841 105.379 23.9409 104.48C23.4146 103.978 21.9632 102.783 20.7154 101.823L18.4469 100.079V105.183ZM24.6547 101.181C25.219 103.709 25.7401 104.644 27.2904 105.914C28.1615 106.627 28.9531 107.125 29.0503 107.021C29.2011 106.859 25.2968 100.819 24.6145 100.158C24.4823 100.03 24.5009 100.491 24.6547 101.181ZM107.943 103.327C106.725 105.091 105.728 106.679 105.728 106.856C105.728 107.032 106.5 106.589 107.444 105.871C108.632 104.967 109.362 103.935 109.819 102.515C110.182 101.387 110.407 100.387 110.318 100.292C110.23 100.197 109.161 101.563 107.943 103.327ZM113.29 102.477C111.64 103.753 110.075 105.267 109.812 105.841C109.023 107.562 107.731 112.669 108.008 112.967C108.15 113.119 110.126 112.579 112.398 111.766L116.531 110.288V105.223C116.531 102.437 116.477 100.158 116.411 100.158C116.345 100.158 114.94 101.202 113.29 102.477ZM26.9348 109.088C28.1347 113.49 28.343 113.751 31.5681 114.908C33.2001 115.493 34.6955 115.911 34.8912 115.836C35.5597 115.58 31.4726 110.29 29.1998 108.469C27.9528 107.47 26.7836 106.653 26.6017 106.653C26.4198 106.653 26.5697 107.749 26.9348 109.088ZM105.186 108.872C102.688 111.07 99.3935 115.316 99.8256 115.78C99.9531 115.916 101.465 115.524 103.186 114.908L106.314 113.789L107.317 110.594C108.833 105.77 108.769 105.719 105.186 108.872ZM18.4469 115.911C18.4469 120.22 18.5178 120.59 19.6149 121.99C20.2574 122.81 21.418 123.765 22.1936 124.113C23.6938 124.786 30.5453 125.005 30.5453 124.379C30.5453 123.332 27.8789 115.055 27.4144 114.66C26.9737 114.285 24.2615 113.269 18.987 111.502C18.58 111.366 18.4469 112.452 18.4469 115.911ZM111.465 112.987L107.048 114.609L105.555 119.562L104.062 124.514L107.742 124.649C111.906 124.801 113.883 124.071 115.422 121.814C116.15 120.746 116.342 119.657 116.463 115.899C116.545 113.365 116.448 111.309 116.247 111.329C116.047 111.349 113.894 112.095 111.465 112.987ZM34.8662 113.384C34.8662 114.452 37.3412 116.887 39.0717 117.52C40.1661 117.921 41.1232 118.182 41.198 118.102C41.2732 118.021 40.1221 117.012 38.6405 115.859C35.4638 113.386 34.8662 112.994 34.8662 113.384ZM96.5306 115.541C94.918 116.843 93.6723 117.987 93.7626 118.084C94.1498 118.5 97.8009 116.74 98.503 115.8C99.6221 114.303 100.192 113.146 99.8023 113.161C99.6156 113.169 98.1435 114.24 96.5306 115.541ZM29.0088 115.85C29.1618 116.367 29.8302 118.527 30.4943 120.651L31.7025 124.514L36.3089 124.646C38.8427 124.718 40.9154 124.614 40.9154 124.414C40.9154 124.214 39.8944 122.603 38.647 120.834C36.5453 117.854 36.1672 117.542 33.4982 116.586C28.3676 114.749 28.6994 114.803 29.0088 115.85ZM102.483 116.118C100.816 116.688 99.133 117.348 98.7424 117.586C98.1448 117.95 95.0131 122.212 93.9074 124.166C93.6524 124.616 94.6406 124.746 98.322 124.746H103.065L104.432 120.338C105.184 117.914 105.735 115.739 105.656 115.506C105.577 115.273 104.149 115.548 102.483 116.118ZM38.3229 118.448C38.3229 118.591 39.2333 120.066 40.3455 121.727L42.3685 124.746H45.9626C47.9399 124.746 49.5571 124.653 49.5571 124.54C49.5571 123.986 44.4265 120.487 42.4791 119.712C39.3132 118.454 38.3229 118.153 38.3229 118.448ZM93.0337 119.461C91.3982 120.06 88.9677 121.442 87.6326 122.532L85.2043 124.514L88.594 124.65C90.6028 124.731 92.2153 124.58 92.5528 124.279C93.3543 123.565 96.4044 118.751 96.1862 118.544C96.0872 118.45 94.6687 118.862 93.0337 119.461ZM47.8288 121.762C47.8288 121.847 48.6904 122.554 49.7429 123.332C51.2786 124.466 52.1047 124.746 53.9199 124.746C55.1643 124.746 56.0821 124.638 55.9598 124.507C55.6755 124.202 47.8288 121.553 47.8288 121.762ZM82.6117 123.07L78.723 124.514L80.7529 124.655C82.7314 124.791 84.1517 124.259 86.0369 122.673C87.4567 121.478 86.6444 121.572 82.6117 123.07ZM32.4055 126.962C32.8795 129.505 34.5754 133.754 35.523 134.772C36.054 135.342 37.2777 136.063 38.2417 136.373C39.8054 136.876 40.3965 136.802 43.7318 135.685C46.4612 134.771 47.4075 134.26 47.2385 133.788C47.1115 133.433 45.8801 131.467 44.5017 129.42L41.9956 125.698L37.0807 125.686L32.1657 125.674L32.4055 126.962ZM43.6419 126.307C44.2144 127.909 48.4428 133.561 49.0685 133.561C49.927 133.561 56.5526 131.256 57.0301 130.791C57.2189 130.608 55.9995 129.381 54.32 128.065L51.2673 125.674H47.3414C44.2027 125.674 43.4608 125.801 43.6419 126.307ZM53.2515 126.071C53.477 126.289 54.8079 127.362 56.2083 128.455L58.755 130.441L61.1772 129.623C66.1661 127.939 66.1207 128.02 62.7595 126.781C60.5745 125.974 58.8185 125.674 56.2998 125.674C54.3494 125.674 53.0199 125.847 53.2515 126.071ZM64.4641 126.386C66.0909 127.186 68.3378 127.18 70.2973 126.37C71.7262 125.779 71.5715 125.744 67.4887 125.747C63.4824 125.749 63.2625 125.796 64.4641 126.386ZM71.8908 126.731C70.5094 127.24 69.5372 127.812 69.7304 128C69.9231 128.188 71.4013 128.806 73.0147 129.372L75.9485 130.401L78.3237 128.644C82.1758 125.796 82.1619 125.665 78.0195 125.739C75.6733 125.782 73.5198 126.13 71.8908 126.731ZM80.3256 128.188C77.7594 130.205 77.3187 130.726 77.9491 131.001C80.4906 132.11 84.8387 133.56 85.6039 133.553C86.2223 133.548 87.2385 132.443 88.877 129.998C90.1841 128.046 91.3183 126.275 91.3974 126.062C91.4769 125.848 89.7269 125.683 87.5086 125.693L83.4759 125.712L80.3256 128.188ZM89.9585 129.951L87.1089 134.229L88.7491 134.848C94.7746 137.126 97.3995 137.037 99.3979 134.487C100.402 133.206 101.883 129.587 102.522 126.853L102.798 125.674H97.8031H92.8086L89.9585 129.951ZM63.1743 129.806L59.7237 131.083L63.3195 133.946C65.2972 135.52 67.1197 136.808 67.3699 136.808C67.9705 136.808 74.6181 131.659 74.6181 131.195C74.6181 130.848 67.7583 128.418 66.994 128.494C66.7909 128.514 65.0721 129.105 63.1743 129.806ZM53.5539 133.158C51.3559 133.909 49.561 134.777 49.5658 135.086C49.5792 135.967 54.0072 141.605 55.1911 142.248C57.3027 143.395 59.6282 142.986 62.3624 140.985C65.8235 138.453 66.5965 137.783 66.3549 137.524C65.2224 136.307 58.7688 131.715 58.2404 131.749C57.861 131.773 55.752 132.407 53.5539 133.158ZM72.2499 134.481C70.3535 135.987 68.7409 137.414 68.6661 137.654C68.5918 137.894 69.8397 139.092 71.4389 140.317C74.9392 142.999 77.7607 143.54 80.0806 141.974C81.3211 141.137 85.7387 135.107 85.3646 134.762C84.9925 134.42 76.9367 131.707 76.3456 131.724C75.9896 131.735 74.1467 132.976 72.2499 134.481Z" fill="white"/>
</svg>
