<svg width="304" height="304" viewBox="0 0 304 304" fill="none" xmlns="http://www.w3.org/2000/svg">
<path fill-rule="evenodd" clip-rule="evenodd" d="M124.803 1.39344C122.645 2.17007 120.786 2.81336 120.672 2.82119C120.559 2.82906 117.957 6.25626 114.89 10.4356C111.824 14.6149 109.199 18.1774 109.058 18.352C108.917 18.5265 105.206 17.5332 100.811 16.1456C91.5413 13.2185 87.18 12.9969 82.499 15.218C77.7717 17.4606 75.7834 20.3896 72.7307 29.6093C71.2661 34.0299 69.583 37.9718 68.9884 38.3682C68.3941 38.7642 64.0024 39.0946 59.2282 39.1034C49.2841 39.12 45.4222 40.492 41.8253 45.2842C39.7593 48.0359 39.3993 49.787 38.9706 59.1509L38.4804 69.8687L30.2628 72.5361C20.7134 75.6358 17.5538 77.689 15.1848 82.3344C12.8266 86.9569 13.0287 91.5666 16.0039 100.981C17.4037 105.41 18.1463 109.279 17.6597 109.611C4.67896 118.455 1.60372 121.714 0.265714 128.044C-0.737786 132.79 1.03771 137.524 6.67518 145.124L11.7966 152.031L7.69436 157.597C1.37908 166.167 -0.574016 170.938 0.178365 175.953C0.983718 181.32 2.96817 183.805 11.4994 190.128C15.279 192.928 18.3709 195.542 18.3709 195.936C18.3709 196.329 17.2673 199.895 15.9185 203.859C10.5822 219.542 13.7742 225.928 29.8214 231.677L38.4804 234.78L38.9706 245.06C39.5112 256.384 40.2675 258.399 45.4712 262.367C48.6595 264.798 50.0083 265.11 59.3566 265.593L69.7115 266.127L72.2433 273.482C75.4735 282.866 76.4906 284.588 80.7048 287.801C85.1935 291.223 91.7552 291.244 101.446 287.865L108.498 285.406L114.017 292.735C120.473 301.311 124.147 303.872 130.002 303.877C134.827 303.882 138.368 302.298 145.606 296.903C148.415 294.808 151.315 293.094 152.049 293.094C152.785 293.094 155.784 294.908 158.713 297.125C171.882 307.09 180.325 306.293 188.94 294.271C191.43 290.794 193.914 287.329 194.457 286.57C195.295 285.402 196.344 285.502 201.324 287.223C219.78 293.602 226.392 290.778 231.79 274.207L234.582 265.637H243.491C260.216 265.637 265.568 260.258 265.568 243.447V234.42L274.86 231.325C285.217 227.876 288.285 225.277 290.144 218.373C291.302 214.074 290.818 211.074 287.33 200.917L285.477 195.524L293.026 189.973C307.09 179.631 307.534 171.718 294.946 155.761L292.199 152.281L297.088 145.627C302.839 137.797 303.825 135.507 303.82 130.005C303.816 124.281 301.199 120.551 292.71 114.165L285.415 108.675L288.3 99.7067C291.876 88.5925 291.492 84.6485 286.3 79.1542C283.539 76.232 280.852 74.7552 274.396 72.6088L266.058 69.8366L265.568 59.4509C265.04 48.277 264.092 45.9404 258.33 41.6307C256.123 39.9791 253.706 39.5181 245.163 39.1182L234.699 38.628L231.567 29.8897C225.892 14.0618 219.827 10.972 204.259 15.977C199.943 17.3645 196.119 18.5059 195.762 18.5128C195.405 18.5197 193.102 15.7083 190.644 12.2654C180.023 -2.61329 173.026 -3.56251 157.515 7.7713L151.971 11.8231L145.165 6.87501C135.043 -0.485379 132.168 -1.25908 124.803 1.39344ZM124.357 3.57333C122.399 4.56276 118.772 8.26944 115.771 12.3468L110.575 19.4061L121.123 22.8265C133.133 26.7214 131.147 27.1362 143.335 18.1912L150.095 13.2303L146.768 10.4042C141.47 5.90227 133.884 1.87394 130.689 1.8661C129.07 1.86218 126.22 2.62999 124.357 3.57333ZM168.852 3.09086C164.839 4.6971 154.743 11.8859 154.749 13.1322C154.752 13.6716 158.637 16.8458 163.382 20.1857L172.01 26.2596L180.97 23.4511C194.253 19.2885 193.816 19.9288 188.351 12.6635C185.77 9.23237 182.545 5.60613 181.184 4.60491C177.945 2.22305 172.646 1.57194 168.852 3.09086ZM143.931 20.1112C139.885 23.0971 136.204 25.8977 135.752 26.336C134.87 27.1892 149.008 32.254 152.269 32.254C154.501 32.254 169.747 27.3353 169.202 26.7911C167.975 25.5643 152.35 14.61 151.873 14.6434C151.551 14.6649 147.978 17.1252 143.931 20.1112ZM82.6225 17.39C81.004 18.3784 79.1205 19.8651 78.438 20.6927C77.0969 22.3166 72.3227 35.687 72.3227 37.819C72.3227 38.8105 74.629 39.1182 82.0515 39.1182C87.4027 39.1182 92.4554 38.8592 93.2794 38.5436C94.8322 37.9482 106.662 22.2538 106.647 20.8113C106.633 19.6552 92.7469 15.5828 88.832 15.5876C87.035 15.5896 84.241 16.4006 82.6225 17.39ZM204.014 17.8244C200.642 18.957 197.883 20.4054 197.883 21.0427C197.883 22.2783 208.374 37.154 210.101 38.3682C211.558 39.3918 231.01 39.2937 231.651 38.2591C232.34 37.1441 228.014 24.4307 225.791 21.0408C222.02 15.2866 214.758 14.2138 204.014 17.8244ZM103.467 29.22C100.365 33.4482 97.8271 37.4049 97.8271 38.0131C97.8271 38.7444 100.593 39.1182 106.011 39.1182H114.195L121.141 34.2416C124.962 31.5597 128.344 28.9493 128.659 28.4414C129.165 27.6226 112.566 21.4173 110.087 21.4997C109.548 21.5174 106.57 24.9916 103.467 29.22ZM184.64 24.3003C180.324 25.7536 176.188 27.1627 175.449 27.4314C174.619 27.7324 176.868 29.9603 181.335 33.2601L188.564 38.6004L197.781 38.9594C205.751 39.2693 206.92 39.1144 206.42 37.814C205.25 34.7644 194.823 21.4703 193.676 21.5625C193.022 21.6154 188.957 22.8471 184.64 24.3003ZM126.414 32.9501C123.1 35.327 120.389 37.6877 120.389 38.1956C120.389 40.6812 134.418 38.7847 146.769 34.6289C148.769 33.9565 148.087 33.5954 139.879 30.99L132.439 28.6287L126.414 32.9501ZM163.075 31.1832L155.243 33.8799L161.604 36.0831C168.352 38.4201 184.15 40.0811 184.15 38.4533C184.15 37.6651 171.865 28.1756 171.145 28.4081C171.014 28.4502 167.383 29.6995 163.075 31.1832ZM147.119 36.4187C141.713 38.1515 143.558 39.1182 152.269 39.1182C161.258 39.1182 162.854 38.1405 156.815 36.3312C152.433 35.0192 151.455 35.0281 147.119 36.4187ZM94.3046 42.1541C91.1009 45.7028 86.1079 53.3544 86.8366 53.5969C89.5844 54.5125 106.455 46.3364 109.577 42.5759C111.358 40.4302 96.2368 40.0134 94.3046 42.1541ZM112.016 43.5053C109.341 45.4067 107.612 46.9629 108.174 46.9629C108.737 46.9629 112.929 45.6725 117.49 44.0947C123.922 41.8707 125.087 41.2106 122.676 41.1531C120.967 41.1129 118.963 40.8471 118.225 40.5636C117.485 40.2802 114.692 41.6038 112.016 43.5053ZM134.544 40.8961C133.502 41.0648 125.283 43.6299 116.281 46.5951L99.9096 51.9885L85.8714 62.4684C72.2355 72.6479 71.5427 73.3433 61.7677 86.6773L51.7033 100.406L46.2649 117.038L40.8276 133.669L40.7725 151.862L40.7185 170.054L46.0648 186.712L51.4101 203.369L61.808 217.629C72.1226 231.775 72.3195 231.972 86.243 242.126C100.108 252.239 100.471 252.429 115.975 257.703L131.669 263.042L150.308 263.428L168.945 263.813L186.112 258.23L203.278 252.646L217.992 241.987C228.878 234.101 233.57 230.047 236.024 226.408C237.849 223.703 242.231 217.633 245.763 212.919C251.733 204.954 252.587 203.14 257.892 187.189L263.598 170.029L263.602 152.228L263.606 134.428L258.082 117.606L252.559 100.785L242.361 86.6696C232.179 72.5752 232.142 72.5382 217.762 62.0445L203.361 51.5345L187.134 46.2217L170.907 40.9088L153.672 40.7489C144.192 40.6607 135.584 40.7274 134.544 40.8961ZM182.679 40.9364C178.816 41.2992 178.883 41.349 187.02 44.124C191.567 45.6753 195.44 46.7893 195.63 46.6001C196.102 46.1285 189.897 41.5276 188.074 40.996C187.264 40.7606 184.837 40.7334 182.679 40.9364ZM47.1116 43.0012C42.247 45.9658 40.9324 49.5096 40.9324 59.662C40.9324 64.5431 41.2807 68.5362 41.7056 68.5362C42.1312 68.5362 46.8465 67.0721 52.1851 65.2837L61.8913 62.0311L65.1451 52.328C66.9344 46.9915 68.399 42.2776 68.399 41.852C68.399 41.4273 64.3151 41.0814 59.3252 41.0832C52.0566 41.0864 49.6268 41.4676 47.1116 43.0012ZM69.9253 44.2663C67.7899 49.4362 65.1342 59.7156 65.7701 60.3513C66.0927 60.6746 69.8675 59.7167 74.1578 58.2243C81.515 55.6639 82.2057 55.1687 86.3009 49.5205C88.6898 46.2256 90.9615 42.9797 91.35 42.3052C91.8974 41.3568 89.6991 41.0793 81.6495 41.0793H71.2417L69.9253 44.2663ZM192.978 41.4273C192.978 41.6187 195.537 43.5702 198.664 45.7628C203.569 49.2018 214.352 53.8271 217.466 53.8271C218.019 53.8271 216.408 50.9589 213.885 47.4532L209.298 41.0793H201.139C196.65 41.0793 192.978 41.2364 192.978 41.4273ZM212.612 41.8149C212.62 42.2187 214.788 45.4805 217.432 49.0606C222.08 55.3589 222.497 55.6579 230.232 58.2321C234.628 59.6962 238.464 60.6552 238.756 60.364C239.047 60.0728 237.879 55.6148 236.16 50.4569L233.035 41.0793H222.817C217.196 41.0793 212.604 41.4108 212.612 41.8149ZM236.14 42.1629C236.14 44.0517 241.232 60.1501 242.217 61.3749C242.988 62.3339 261.009 68.5362 263.023 68.5362C263.344 68.5362 263.606 64.7637 263.606 60.1522C263.606 50.799 262.492 47.6946 257.68 43.6475C254.859 41.2745 253.924 41.0793 245.383 41.0793C239.287 41.0793 236.14 41.4482 236.14 42.1629ZM87.5273 55.8464C84.0987 57.1859 81.7917 58.9412 79.8613 61.6788C78.3427 63.8323 77.3725 65.5943 77.706 65.5943C78.528 65.5943 92.9223 54.9195 92.9223 54.3106C92.9223 53.6996 93.2822 53.5969 87.5273 55.8464ZM218.465 60.0326C222.502 63.0215 225.967 65.3041 226.166 65.105C226.939 64.3335 220.923 57.5103 218.74 56.6808C211.478 53.9202 211.405 54.8048 218.465 60.0326ZM70.6746 61.3181L63.6315 63.7507L61.1201 71.2191C59.7381 75.327 58.762 78.8415 58.9494 79.0285C59.85 79.9289 71.3758 70.2139 74.4335 65.9779C80.5477 57.5092 80.799 57.8212 70.6746 61.3181ZM225.349 59.1636C225.349 59.5176 227.166 62.3819 229.386 65.5286C233.475 71.3261 244.968 80.5798 244.968 78.0766C244.968 75.7526 240.946 64.7708 239.75 63.8263C239.113 63.3233 236.164 62.1281 233.197 61.1691C230.229 60.2101 227.251 59.2215 226.575 58.9723C225.902 58.7245 225.349 58.8095 225.349 59.1636ZM50.0062 67.8487L40.9324 70.9103V81.5487C40.9324 89.782 41.2101 92.0265 42.1588 91.4794C42.8335 91.0912 46.1336 88.7817 49.4923 86.3469C55.2649 82.1636 55.7361 81.5127 58.0756 74.4894C60.6614 66.729 61.0478 64.5558 59.8158 64.7002C59.4106 64.7471 54.9964 66.1643 50.0062 67.8487ZM243.492 66.5614C248.274 81.6214 248.217 81.5244 255.341 86.9029C259.078 89.7231 262.481 92.0392 262.904 92.0512C263.326 92.0618 263.547 87.3303 263.394 81.5371L263.115 71.0024L254.777 68.298C250.192 66.8102 245.623 65.3288 244.626 65.0062C243.123 64.5205 242.929 64.7863 243.492 66.5614ZM29.8627 74.4188C26.7423 75.3986 23.0794 76.9263 21.7238 77.8147C18.2061 80.1181 15.436 85.1243 15.432 89.1837C15.4281 92.6657 18.8986 104.527 20.4053 106.184C20.8517 106.676 24.9962 104.235 29.8411 100.629L38.4804 94.1976L38.8012 86.2598C39.1611 77.3576 38.3978 72.4146 36.6861 72.5477C36.0544 72.5968 32.984 73.4393 29.8627 74.4188ZM265.593 83.4904L265.619 94.5224L273.488 100.21C277.817 103.338 281.973 106.132 282.724 106.421C283.722 106.804 284.804 104.657 286.737 98.4622C289.112 90.8441 289.259 89.5681 288.171 85.9371C287.504 83.7131 285.748 80.7623 284.268 79.3808C281.914 77.1832 269.941 72.4588 266.724 72.4588C265.903 72.4588 265.576 75.6584 265.593 83.4904ZM61.3058 80.0945C57.8882 82.5794 53.5985 90.3506 54.9177 91.6686C55.3641 92.1148 62.5043 82.7326 64.8713 78.5873C65.8326 76.9047 65.5012 77.0449 61.3058 80.0945ZM239.769 79.6328C242.021 83.3375 249.239 93.0307 249.53 92.7395C250.666 91.604 246.3 82.8649 243.548 80.7662C240.041 78.0921 238.564 77.6488 239.769 79.6328ZM46.9958 90.6252L40.9324 95.0349V103.555V112.075L45.3939 105.946C49.2725 100.618 54.6145 87.7708 53.4404 86.5961C53.2304 86.3861 50.3301 88.1993 46.9958 90.6252ZM252.046 92.7925C253.69 98.274 261.61 111.683 263.202 111.683C263.423 111.683 263.606 107.97 263.606 103.434V95.1852L257.299 90.686C253.831 88.211 250.783 86.187 250.528 86.187C250.273 86.187 250.956 89.1594 252.046 92.7925ZM29.1613 103.47C25.1149 106.459 21.6767 109.251 21.5207 109.673C21.092 110.834 27.1886 129.341 27.9812 129.284C28.3608 129.256 30.9034 126.057 33.6324 122.174C38.2771 115.567 38.6106 114.69 38.847 108.489C39.0972 101.901 38.4673 97.9179 37.1883 97.9945C36.8195 98.016 33.2076 100.48 29.1613 103.47ZM265.568 106.798V115.642L270.692 122.488C273.51 126.253 276.058 129.334 276.353 129.334C276.995 129.334 282.244 112.384 282.244 110.316C282.244 108.934 268.194 97.9542 266.426 97.9542C265.954 97.9542 265.568 101.935 265.568 106.798ZM43.1918 112.408C40.8177 115.686 40.4616 116.976 40.8029 121.08L41.2052 125.901L44.002 117.639C45.5411 113.094 46.615 109.192 46.3906 108.968C46.1658 108.743 44.7259 110.291 43.1918 112.408ZM257.72 109.342C257.72 110.632 262.449 124.582 263.112 125.244C263.383 125.515 263.588 123.348 263.566 120.427C263.533 115.992 263.047 114.554 260.623 111.72C259.027 109.853 257.72 108.782 257.72 109.342ZM11.4857 116.431C4.06686 121.902 1.0534 127.079 2.08536 132.579C2.61409 135.394 11.6926 149.926 12.9227 149.926C13.1356 149.926 16.2178 145.964 19.7727 141.122L26.2371 132.319L23.0147 122.319C21.2431 116.82 19.3626 112.184 18.8368 112.017C18.311 111.851 15.0024 113.836 11.4857 116.431ZM281.294 122.025L278.054 132.368L281.326 136.979C288.521 147.12 290.608 149.852 291.19 149.888C291.525 149.908 294.108 146.508 296.931 142.33C301.806 135.118 302.044 134.472 301.637 129.575C301.331 125.884 300.535 123.685 298.838 121.852C296.008 118.791 286.61 111.683 285.393 111.683C284.921 111.683 283.077 116.337 281.294 122.025ZM265.568 127.182C265.568 134.545 268.597 146.984 270.39 146.984C270.785 146.984 272.133 143.715 273.387 139.72L275.666 132.456L270.918 125.992C268.307 122.436 266.035 119.528 265.869 119.528C265.703 119.528 265.568 122.973 265.568 127.182ZM32.777 126.563L28.4305 132.619L30.8465 139.802C32.1757 143.752 33.5628 146.984 33.9295 146.984C34.2966 146.984 35.5452 143.786 36.7048 139.875C38.9197 132.404 39.7759 120.508 38.0985 120.508C37.5631 120.508 35.1686 123.233 32.777 126.563ZM21.5403 141.957C13.6252 152.802 13.7006 151.502 20.4436 160.704C23.7043 165.155 26.7216 168.412 27.1493 167.941C27.576 167.471 29.0367 163.725 30.3943 159.616L32.8633 152.146L30.0952 144.073C28.5727 139.632 27.1405 135.811 26.9119 135.583C26.6824 135.355 24.2654 138.223 21.5403 141.957ZM276.546 136.848C276.02 137.838 274.654 141.694 273.509 145.415L271.427 152.179L274.095 160.369C275.562 164.872 277.031 168.557 277.36 168.557C277.687 168.557 280.631 164.89 283.902 160.408C289.777 152.351 289.826 152.23 288.15 149.866C277.95 135.485 277.521 135.004 276.546 136.848ZM265.637 152.133L265.706 161.203L267.626 156.878C269.442 152.784 269.461 152.301 267.968 147.808C267.101 145.198 266.206 143.062 265.98 143.062C265.753 143.062 265.599 147.144 265.637 152.133ZM36.1917 148.199C35.0634 152.644 36.4292 161.186 38.1034 160.153C39.2328 159.455 39.2384 144.043 38.1094 144.043C37.6355 144.043 36.7722 145.913 36.1917 148.199ZM7.87975 160.981C5.61573 164.339 3.24284 168.266 2.60622 169.708C1.13482 173.041 2.103 178.351 4.80939 181.791C7.61097 185.351 18.5896 193.258 19.4519 192.337C19.8315 191.932 21.4864 187.221 23.1314 181.866L26.1213 172.131L20.0385 163.496C16.6935 158.748 13.5153 154.864 12.9758 154.868C12.4362 154.872 10.1428 157.623 7.87975 160.981ZM284.321 163.085C281.019 167.625 278.32 171.926 278.32 172.643C278.32 173.871 284.14 192.19 284.764 192.925C285.464 193.75 298.359 183.615 300.073 180.89C303.336 175.706 302.172 169.247 296.561 161.386C293.987 157.78 291.529 154.829 291.101 154.829C290.671 154.829 287.62 158.544 284.321 163.085ZM30.8426 164.165L28.3903 171.724L32.8898 177.925C35.3648 181.337 37.7671 183.894 38.228 183.61C40.5234 182.192 37.105 160.782 34.0492 157.435C33.6343 156.98 32.1914 160.009 30.8426 164.165ZM267.76 163.137C266.226 167.53 265.568 171.679 265.568 176.952C265.568 185.613 265.891 185.614 271.849 176.967L275.563 171.577L273.387 164.919C272.19 161.257 270.928 157.946 270.582 157.56C270.235 157.174 268.966 159.683 267.76 163.137ZM270.68 181.841L265.493 189.107L265.776 198.042L266.058 206.978L274.577 200.917C279.262 197.584 282.938 194.346 282.747 193.72C279.856 184.292 276.968 175.773 276.482 175.243C276.144 174.876 273.533 177.844 270.68 181.841ZM24.232 184.97L21.1725 194.517L23.9407 196.746C25.4631 197.973 29.2152 200.742 32.2787 202.901C37.5808 206.638 37.8797 206.729 38.4959 204.79C38.852 203.67 39.0168 199.802 38.8629 196.197C38.6039 190.167 38.1938 189.07 33.7491 182.531C31.0908 178.621 28.5511 175.422 28.1038 175.422C27.6575 175.422 25.9143 179.719 24.232 184.97ZM40.7972 183.267C40.5096 186.836 40.9758 188.488 43.2338 191.916C44.77 194.245 46.2003 195.978 46.4132 195.766C46.626 195.554 45.5291 191.662 43.9756 187.116L41.1523 178.854L40.7972 183.267ZM262.486 179.834C261.665 181.111 257.72 193.94 257.72 195.33C257.72 195.919 259.069 194.567 260.718 192.326C263.247 188.888 263.67 187.515 263.416 183.552C263.251 180.968 262.832 179.295 262.486 179.834ZM40.7619 200.911L40.4422 208.752L46.6221 213.284C50.021 215.777 53.0638 217.555 53.3836 217.236C54.4794 216.139 49.505 204.35 45.5676 198.711C43.4014 195.61 41.5066 193.073 41.3552 193.073C41.2052 193.073 40.9384 196.6 40.7619 200.911ZM258.723 198.323C255.419 202.698 249.176 217.218 250.171 218.213C250.333 218.375 253.4 216.425 256.987 213.88L263.51 209.253L263.558 201.163C263.584 196.713 263.4 193.073 263.147 193.073C262.895 193.073 260.904 195.435 258.723 198.323ZM19.2665 199.641C12.4186 217.448 14.9779 224.757 29.8048 229.74C33.9571 231.137 37.6083 232.025 37.9171 231.716C38.227 231.407 38.5351 226.375 38.6028 220.533L38.7263 209.911L30.8132 204.189C19.7963 196.221 20.478 196.49 19.2665 199.641ZM274.151 203.508L265.568 209.903V221.205C265.568 229.834 265.858 232.4 266.794 232.054C267.469 231.806 271.11 230.601 274.887 229.377C282.857 226.793 286.738 223.599 288.321 218.316C289.313 215.007 289.109 213.49 286.643 205.774C285.099 200.945 283.589 197.021 283.286 197.055C282.982 197.087 278.872 199.992 274.151 203.508ZM40.9324 222.326V233.115L50.3132 236.24C55.4732 237.958 59.9326 239.126 60.2237 238.835C61.2546 237.804 55.5466 222.74 53.4051 220.839C52.2105 219.779 48.9153 217.252 46.0825 215.225L40.9324 211.538V222.326ZM55.0257 213.867C56.3067 219.21 57.4897 221.187 61.0093 223.871C62.9871 225.378 64.7841 226.431 65.0047 226.211C65.347 225.868 56.4836 213.1 54.9346 211.704C54.6343 211.434 54.6766 212.408 55.0257 213.867ZM244.11 218.403C241.344 222.131 239.082 225.487 239.082 225.861C239.082 226.235 240.835 225.298 242.977 223.78C245.675 221.868 247.332 219.688 248.37 216.686C249.193 214.303 249.703 212.188 249.502 211.988C249.302 211.787 246.875 214.673 244.11 218.403ZM256.25 216.606C252.503 219.303 248.95 222.502 248.352 223.716C246.563 227.355 243.629 238.149 244.259 238.778C244.581 239.1 249.066 237.958 254.225 236.24L263.606 233.115V222.41C263.606 216.522 263.483 211.704 263.334 211.704C263.184 211.704 259.996 213.911 256.25 216.606ZM60.2022 230.581C62.926 239.884 63.3989 240.437 70.7208 242.881C74.4257 244.119 77.8207 245.002 78.2651 244.843C79.7826 244.301 70.5038 233.12 65.3442 229.272C62.5131 227.161 59.8588 225.432 59.4459 225.432C59.0327 225.432 59.3732 227.75 60.2022 230.581ZM237.851 230.123C232.181 234.769 224.701 243.743 225.682 244.724C225.971 245.012 229.404 244.184 233.31 242.882L240.412 240.516L242.689 233.764C246.131 223.567 245.985 223.458 237.851 230.123ZM40.9324 245.001C40.9324 254.11 41.0933 254.892 43.5842 257.85C45.0428 259.583 47.6776 261.603 49.4383 262.338C52.8443 263.76 68.399 264.223 68.399 262.901C68.399 260.688 62.3455 243.191 61.291 242.357C60.2904 241.565 54.1331 239.418 42.1588 235.683C41.2348 235.395 40.9324 237.69 40.9324 245.001ZM252.106 238.821L242.077 242.249L238.688 252.718L235.299 263.186L243.654 263.47C253.108 263.793 257.596 262.25 261.09 257.479C262.743 255.221 263.177 252.92 263.453 244.976C263.638 239.62 263.417 235.274 262.963 235.316C262.507 235.358 257.621 236.936 252.106 238.821ZM78.2082 239.659C78.2082 241.918 83.827 247.065 87.7556 248.403C90.2405 249.25 92.4134 249.802 92.5831 249.633C92.7536 249.462 90.1406 247.328 86.7766 244.891C79.5648 239.664 78.2082 238.836 78.2082 239.659ZM218.201 244.22C214.54 246.971 211.712 249.39 211.917 249.595C212.796 250.473 221.085 246.755 222.679 244.767C225.22 241.602 226.513 239.157 225.629 239.189C225.205 239.205 221.863 241.469 218.201 244.22ZM64.9108 244.873C65.2577 245.964 66.7752 250.53 68.2832 255.021L71.0257 263.186L81.4836 263.464C87.2358 263.617 91.9415 263.396 91.9415 262.974C91.9415 262.551 89.6236 259.147 86.7915 255.407C82.0201 249.109 81.1618 248.449 75.1026 246.429C63.455 242.545 64.2081 242.66 64.9108 244.873ZM231.713 245.439C227.93 246.643 224.109 248.039 223.223 248.542C221.866 249.312 214.756 258.321 212.246 262.45C211.667 263.401 213.911 263.676 222.268 263.676H233.035L236.14 254.359C237.847 249.235 239.098 244.639 238.919 244.145C238.739 243.653 235.497 244.235 231.713 245.439ZM86.0556 250.364C86.0556 250.666 88.1227 253.785 90.6478 257.294L95.2402 263.676H103.4C107.889 263.676 111.56 263.48 111.56 263.24C111.56 262.069 99.9124 254.673 95.4915 253.036C88.304 250.376 86.0556 249.74 86.0556 250.364ZM210.262 252.506C206.55 253.772 201.032 256.693 198.001 258.997L192.488 263.186L200.183 263.474C204.744 263.645 208.405 263.325 209.171 262.689C210.99 261.179 217.915 251.004 217.419 250.566C217.195 250.367 213.974 251.24 210.262 252.506ZM107.636 257.368C107.636 257.549 109.593 259.044 111.982 260.687C115.468 263.085 117.344 263.676 121.465 263.676C124.29 263.676 126.374 263.448 126.096 263.17C125.45 262.526 107.636 256.927 107.636 257.368ZM186.602 260.133L177.774 263.186L182.382 263.483C186.874 263.772 190.098 262.646 194.378 259.294C197.602 256.768 195.757 256.968 186.602 260.133ZM72.622 268.359C73.698 273.736 77.5483 282.717 79.6993 284.868C80.9049 286.073 83.683 287.596 85.8714 288.252C89.4214 289.315 90.7635 289.159 98.3353 286.798C104.532 284.867 106.68 283.785 106.297 282.788C106.008 282.037 103.213 277.882 100.083 273.554L94.3939 265.688L83.2355 265.663L72.0774 265.637L72.622 268.359ZM98.1313 266.975C99.4311 270.362 109.03 282.307 110.451 282.307C112.4 282.307 127.442 277.437 128.526 276.454C128.954 276.066 126.186 273.473 122.373 270.692L115.443 265.637H106.53C99.4046 265.637 97.7201 265.906 98.1313 266.975ZM119.947 266.476C120.459 266.938 123.481 269.206 126.66 271.515L132.442 275.713L137.941 273.984C149.267 270.425 149.164 270.597 141.533 267.977C136.572 266.273 132.586 265.637 126.868 265.637C122.44 265.637 119.422 266.003 119.947 266.476ZM145.403 267.144C149.096 268.834 154.197 268.82 158.645 267.108C161.889 265.859 161.538 265.786 152.269 265.791C143.174 265.796 142.675 265.895 145.403 267.144ZM162.263 267.872C159.127 268.949 156.92 270.156 157.358 270.554C157.796 270.952 161.152 272.257 164.814 273.454L171.475 275.628L176.867 271.916C185.612 265.895 185.581 265.618 176.177 265.775C170.85 265.866 165.961 266.602 162.263 267.872ZM181.412 270.951C175.586 275.214 174.586 276.316 176.017 276.896C181.787 279.241 191.658 282.306 193.395 282.292C194.799 282.28 197.106 279.946 200.826 274.776C203.793 270.652 206.368 266.908 206.548 266.457C206.728 266.006 202.755 265.656 197.719 265.677L188.564 265.718L181.412 270.951ZM203.281 274.678L196.812 283.72L200.535 285.029C214.215 289.844 220.174 289.656 224.711 284.266C226.99 281.557 230.352 273.91 231.803 268.129L232.429 265.637H221.09H209.751L203.281 274.678ZM142.475 274.372L134.641 277.07L142.804 283.121C147.294 286.448 151.432 289.171 151.999 289.171C153.363 289.171 168.455 278.289 168.455 277.306C168.455 276.575 152.881 271.438 151.146 271.597C150.685 271.64 146.783 272.889 142.475 274.372ZM120.634 281.457C115.644 283.045 111.569 284.878 111.58 285.532C111.61 287.394 121.663 299.31 124.351 300.669C129.145 303.094 134.424 302.229 140.631 298.001C148.489 292.649 150.244 291.233 149.695 290.685C147.124 288.114 132.473 278.407 131.273 278.478C130.412 278.529 125.624 279.87 120.634 281.457ZM163.078 284.253C158.773 287.436 155.112 290.453 154.942 290.96C154.774 291.466 157.606 293.999 161.237 296.589C169.184 302.258 175.589 303.401 180.856 300.092C183.672 298.322 193.701 285.576 192.852 284.847C192.007 284.124 173.718 278.389 172.377 278.426C171.568 278.448 167.385 281.071 163.078 284.253Z" fill="white"/>
</svg>
